<svg width="41" height="59" viewBox="0 0 41 59" fill="none" xmlns="http://www.w3.org/2000/svg">
<path fill-rule="evenodd" clip-rule="evenodd" d="M6.1502 5.92633L20.1874 19.5316L13.904 1.11468C13.9979 1.08232 14.0922 1.05063 14.1867 1.0196L18.7151 0.0826903C19.2044 0.0378354 19.6986 0.0100712 20.1972 0L21.0271 18.8804L29.4101 1.95669C30.6101 2.52281 31.7466 3.20126 32.8062 3.97849L23.2264 18.8804L38.9365 11.1301C39.9447 13.0724 40.653 15.1954 41 17.4377L23.2264 20.3999L40.8981 24.3971C40.6321 25.8333 40.2172 27.2174 39.6701 28.5326L23.2264 21.4853L34.1131 36.2143C32.684 37.4516 31.0832 38.4957 29.3511 39.3061L22.3581 22.3536L19.5721 41.2131C18.7792 41.1734 17.9982 41.0889 17.2315 40.962L16.4972 40.8047L21.0557 22.3536L7.05153 36.1456C5.14118 34.4747 3.54191 32.457 2.35196 30.1907L20.1874 21.4853H0.0179257C0.00601445 21.1975 0 20.9082 0 20.6176C0 19.5334 0.0836657 18.4687 0.244893 17.4298L20.1874 20.3999L3.0124 9.88022C3.89514 8.43561 4.95065 7.10807 6.1502 5.92633Z" fill="url(#paint0_radial_1675_2048)" fill-opacity="0.5"/>
<path d="M25.1135 26.7416V24.9146H24.5898C23.6727 23.3956 21.6467 22.3398 19.2955 22.3398C16.9443 22.3398 14.9178 23.3956 14.0007 24.9146H13.4771V26.7416C13.4771 29.1733 16.082 31.1439 19.2955 31.1439C22.5091 31.1439 25.1135 29.1761 25.1135 26.7416Z" fill="#E86124"/>
<path d="M15.1962 26.7416V24.9146H15.7198C16.5235 23.5839 18.1789 22.6092 20.1551 22.3874C19.8697 22.3556 19.5827 22.3398 19.2955 22.3398C16.9438 22.3398 14.9178 23.3956 14.0007 24.9146H13.4771V26.7416C13.4771 29.1733 16.082 31.1439 19.2955 31.1439C19.5827 31.144 19.8697 31.128 20.1551 31.0958C17.349 30.7817 15.1962 28.9525 15.1962 26.7416Z" fill="#DC4A26"/>
<path d="M19.2955 29.3173C22.509 29.3173 25.114 27.3463 25.114 24.915C25.114 22.4837 22.509 20.5127 19.2955 20.5127C16.0821 20.5127 13.4771 22.4837 13.4771 24.915C13.4771 27.3463 16.0821 29.3173 19.2955 29.3173Z" fill="#F0E92D"/>
<path d="M19.2956 28.1002C21.621 28.1002 23.5061 26.674 23.5061 24.9146C23.5061 23.1553 21.621 21.729 19.2956 21.729C16.9701 21.729 15.085 23.1553 15.085 24.9146C15.085 26.674 16.9701 28.1002 19.2956 28.1002Z" fill="#EF8521"/>
<path d="M16.3197 25.4669C16.3197 23.6924 17.661 22.1974 19.4874 21.7324C19.4237 21.7324 19.3594 21.7285 19.2951 21.7285C16.9691 21.7285 15.084 23.1548 15.084 24.9141C15.084 26.0464 15.8664 27.0379 17.0401 27.6051C16.575 26.989 16.3222 26.2388 16.3197 25.4669Z" fill="#E86124"/>
<path d="M24.4988 24.0966V22.2691H23.9751C23.0574 20.7501 21.0321 19.6943 18.6803 19.6943C16.3285 19.6943 14.3032 20.7501 13.3855 22.2691H12.8618V24.0966C12.8618 26.5277 15.4668 28.4989 18.6803 28.4989C21.8939 28.4989 24.4988 26.5277 24.4988 24.0966Z" fill="#E86124"/>
<path d="M14.5815 24.0966V22.2691H15.1052C15.9083 20.939 17.5642 19.9643 19.5399 19.7424C19.2545 19.7105 18.9675 19.6944 18.6803 19.6943C16.3285 19.6943 14.3032 20.7501 13.3855 22.2691H12.8618V24.0966C12.8618 26.5277 15.4668 28.4989 18.6803 28.4989C18.9675 28.4988 19.2545 28.4828 19.5399 28.4509C16.7343 28.1368 14.5815 26.307 14.5815 24.0966Z" fill="#DC4A26"/>
<path d="M18.6803 26.6713C21.8938 26.6713 24.4988 24.7003 24.4988 22.269C24.4988 19.8377 21.8938 17.8667 18.6803 17.8667C15.4668 17.8667 12.8618 19.8377 12.8618 22.269C12.8618 24.7003 15.4668 26.6713 18.6803 26.6713Z" fill="#F0E92D"/>
<path d="M18.6808 25.4547C21.0063 25.4547 22.8914 24.0285 22.8914 22.2691C22.8914 20.5097 21.0063 19.0835 18.6808 19.0835C16.3554 19.0835 14.4702 20.5097 14.4702 22.2691C14.4702 24.0285 16.3554 25.4547 18.6808 25.4547Z" fill="#EF8521"/>
<path d="M15.7059 22.8218C15.7059 21.0474 17.0472 19.5524 18.8736 19.0874C18.8094 19.0874 18.7456 19.0835 18.6808 19.0835C16.3553 19.0835 14.4702 20.5098 14.4702 22.2691C14.4702 23.4014 15.2526 24.3928 16.4263 24.9601C15.9608 24.3442 15.708 23.5938 15.7059 22.8218Z" fill="#E86124"/>
<path d="M25.1135 21.4262V19.5987H24.5898C23.6727 18.0796 21.6467 17.0239 19.2955 17.0239C16.9443 17.0239 14.9178 18.0796 14.0007 19.5987H13.4771V21.4262C13.4771 23.8573 16.082 25.8279 19.2955 25.8279C22.5091 25.8279 25.1135 23.8573 25.1135 21.4262Z" fill="#E86124"/>
<path d="M15.1962 21.4262V19.5987H15.7198C16.5235 18.268 18.1789 17.2933 20.1551 17.072C19.8697 17.0398 19.5827 17.0237 19.2955 17.0239C16.9438 17.0239 14.9178 18.0796 14.0007 19.5987H13.4771V21.4262C13.4771 23.8573 16.082 25.8279 19.2955 25.8279C19.5827 25.828 19.8697 25.8122 20.1551 25.7804C17.349 25.4658 15.1962 23.636 15.1962 21.4262Z" fill="#DC4A26"/>
<path d="M19.2955 24.0009C22.509 24.0009 25.114 22.0299 25.114 19.5986C25.114 17.1673 22.509 15.1963 19.2955 15.1963C16.0821 15.1963 13.4771 17.1673 13.4771 19.5986C13.4771 22.0299 16.0821 24.0009 19.2955 24.0009Z" fill="#F0E92D"/>
<path d="M19.2956 22.7843C21.621 22.7843 23.5061 21.3581 23.5061 19.5987C23.5061 17.8393 21.621 16.4131 19.2956 16.4131C16.9701 16.4131 15.085 17.8393 15.085 19.5987C15.085 21.3581 16.9701 22.7843 19.2956 22.7843Z" fill="#EF8521"/>
<path d="M16.3197 20.1509C16.3197 18.377 17.661 16.8814 19.4874 16.4164C19.4237 16.4164 19.3594 16.4131 19.2951 16.4131C16.9691 16.4131 15.084 17.8393 15.084 19.5987C15.084 20.731 15.8664 21.7224 17.0401 22.2897C16.5749 21.6735 16.3221 20.923 16.3197 20.1509Z" fill="#E86124"/>
<path d="M24.4988 18.7812V16.9537H23.9751C23.0574 15.4346 21.0321 14.3789 18.6803 14.3789C16.3285 14.3789 14.3032 15.4346 13.3855 16.9537H12.8618V18.7812C12.8618 21.2123 15.4668 23.1829 18.6803 23.1829C21.8939 23.1829 24.4988 21.2123 24.4988 18.7812Z" fill="#E86124"/>
<path d="M14.5815 18.7812V16.9537H15.1052C15.9083 15.623 17.5642 14.6483 19.5399 14.4264C19.2544 14.3947 18.9675 14.3788 18.6803 14.3789C16.3285 14.3789 14.3032 15.4346 13.3855 16.9537H12.8618V18.7812C12.8618 21.2123 15.4668 23.1829 18.6803 23.1829C18.9675 23.1831 19.2545 23.1671 19.5399 23.1349C16.7343 22.8208 14.5815 20.991 14.5815 18.7812Z" fill="#DC4A26"/>
<path d="M18.6803 21.3558C21.8938 21.3558 24.4988 19.3849 24.4988 16.9536C24.4988 14.5222 21.8938 12.5513 18.6803 12.5513C15.4668 12.5513 12.8618 14.5222 12.8618 16.9536C12.8618 19.3849 15.4668 21.3558 18.6803 21.3558Z" fill="#F0E92D"/>
<path d="M18.6808 20.1393C21.0063 20.1393 22.8914 18.713 22.8914 16.9537C22.8914 15.1943 21.0063 13.7681 18.6808 13.7681C16.3554 13.7681 14.4702 15.1943 14.4702 16.9537C14.4702 18.713 16.3554 20.1393 18.6808 20.1393Z" fill="#EF8521"/>
<path d="M15.7059 17.5059C15.7059 15.7315 17.0472 14.2365 18.8736 13.7715C18.8094 13.7715 18.7456 13.7676 18.6808 13.7676C16.3553 13.7676 14.4702 15.1938 14.4702 16.9532C14.4702 18.0855 15.2526 19.0769 16.4263 19.6442C15.961 19.0282 15.7082 18.2779 15.7059 17.5059Z" fill="#E86124"/>
<path d="M35.1428 27.5849V25.7574H34.6192C33.7015 24.2383 31.6761 23.1826 29.3243 23.1826C26.9726 23.1826 24.9466 24.2383 24.0295 25.7574H23.5059V27.5849C23.5059 30.016 26.1108 31.9872 29.3243 31.9872C32.5379 31.9872 35.1428 30.0144 35.1428 27.5849Z" fill="#E86124"/>
<path d="M25.225 27.5849V25.7574H25.7486C26.5523 24.4272 28.2077 23.452 30.1839 23.2307C29.8985 23.1985 29.6115 23.1824 29.3243 23.1826C26.9726 23.1826 24.9466 24.2383 24.0295 25.7574H23.5059V27.5849C23.5059 30.016 26.1108 31.9872 29.3243 31.9872C29.6115 31.9871 29.8985 31.9711 30.1839 31.9391C27.3783 31.6245 25.225 29.7953 25.225 27.5849Z" fill="#DC4A26"/>
<path d="M29.3243 30.16C32.5378 30.16 35.1428 28.1891 35.1428 25.7578C35.1428 23.3264 32.5378 21.3555 29.3243 21.3555C26.1109 21.3555 23.5059 23.3264 23.5059 25.7578C23.5059 28.1891 26.1109 30.16 29.3243 30.16Z" fill="#F0E92D"/>
<path d="M29.3244 28.943C31.6498 28.943 33.535 27.5168 33.535 25.7574C33.535 23.998 31.6498 22.5718 29.3244 22.5718C26.9989 22.5718 25.1138 23.998 25.1138 25.7574C25.1138 27.5168 26.9989 28.943 29.3244 28.943Z" fill="#EF8521"/>
<path d="M26.349 26.3096C26.349 24.5357 27.6903 23.0401 29.5167 22.5751C29.453 22.5751 29.3887 22.5718 29.3244 22.5718C26.9989 22.5718 25.1133 23.998 25.1133 25.7574C25.1133 26.8897 25.8957 27.8811 27.0694 28.4484C26.6041 27.8322 26.3513 27.0817 26.349 26.3096Z" fill="#E86124"/>
<path d="M34.2551 24.5415V22.7139H33.7314C32.8143 21.1949 30.7883 20.1392 28.4366 20.1392C26.0848 20.1392 24.0594 21.1949 23.1423 22.7139H22.6187V24.5415C22.6187 26.9726 25.2236 28.9432 28.4366 28.9432C31.6496 28.9432 34.2551 26.9726 34.2551 24.5415Z" fill="#E86124"/>
<path d="M24.3378 24.5415V22.7139H24.8598C25.6634 21.3832 27.3188 20.4085 29.295 20.1867C29.01 20.155 28.7234 20.1391 28.4366 20.1392C26.0854 20.1392 24.0594 21.1949 23.1423 22.7139H22.6187V24.5415C22.6187 26.9726 25.2236 28.9432 28.4366 28.9432C28.7239 28.9433 29.0111 28.9274 29.2967 28.8957C26.4906 28.581 24.3378 26.7513 24.3378 24.5415Z" fill="#DC4A26"/>
<path d="M28.4367 27.1161C31.6501 27.1161 34.2551 25.1451 34.2551 22.7138C34.2551 20.2825 31.6501 18.3115 28.4367 18.3115C25.2232 18.3115 22.6182 20.2825 22.6182 22.7138C22.6182 25.1451 25.2232 27.1161 28.4367 27.1161Z" fill="#F0E92D"/>
<path d="M28.4362 25.8995C30.7616 25.8995 32.6468 24.4733 32.6468 22.7139C32.6468 20.9546 30.7616 19.5283 28.4362 19.5283C26.1107 19.5283 24.2256 20.9546 24.2256 22.7139C24.2256 24.4733 26.1107 25.8995 28.4362 25.8995Z" fill="#EF8521"/>
<path d="M25.4613 23.2661C25.4613 21.4922 26.8026 19.9967 28.629 19.5317C28.5653 19.5294 28.501 19.5283 28.4362 19.5283C26.1107 19.5283 24.2256 20.9546 24.2256 22.7139C24.2256 23.8462 25.008 24.8377 26.1817 25.4049C25.7165 24.7887 25.4637 24.0382 25.4613 23.2661Z" fill="#E86124"/>
<path d="M17.422 24.1402L16.06 22.9219L15.7107 23.3131C13.967 22.9839 11.8298 23.7904 10.2622 25.543C8.69451 27.2957 8.1306 29.5116 8.65203 31.2056L8.30273 31.5968L9.66472 32.8151C11.4772 34.4359 14.6829 33.8083 16.8251 31.4129C18.9673 29.0176 19.2344 25.761 17.422 24.1402Z" fill="#E86124"/>
<path d="M10.81 31.5324L9.44802 30.3141L9.79732 29.9228C9.34127 28.4368 9.71684 26.5545 10.8704 24.9326C10.6561 25.1246 10.4529 25.3285 10.2617 25.5435C8.69689 27.2967 8.13018 29.5115 8.65106 31.2066L8.30176 31.5978L9.66375 32.8162C11.4762 34.4369 14.6819 33.8093 16.8241 31.4139C17.0156 31.2007 17.1949 30.9768 17.3612 30.7433C15.2564 32.6206 12.4576 33.0062 10.81 31.5324Z" fill="#DC4A26"/>
<path d="M15.4621 30.1939C17.6043 27.7988 17.8719 24.5431 16.0597 22.9222C14.2475 21.3014 11.0418 21.9291 8.89948 24.3243C6.75718 26.7195 6.48959 29.9751 8.3018 31.596C10.114 33.2168 13.3198 32.5891 15.4621 30.1939Z" fill="#F0E92D"/>
<path d="M14.5549 29.383C16.1052 27.6497 16.2989 25.2937 14.9875 24.1208C13.6762 22.9479 11.3564 23.4022 9.80607 25.1355C8.25578 26.8688 8.06209 29.2248 9.37345 30.3977C10.6848 31.5706 13.0046 31.1163 14.5549 29.383Z" fill="#EF8521"/>
<path d="M10.6082 29.8471C9.2859 28.6645 9.06402 26.6693 9.93755 24.9966C9.89321 25.0424 9.84962 25.0894 9.80677 25.1374C8.25644 26.8699 8.06251 29.2267 9.3742 30.3998C10.2181 31.1549 11.4801 31.2348 12.6856 30.7352C11.9151 30.6722 11.186 30.3605 10.6082 29.8471Z" fill="#E86124"/>
<mask id="path-37-outside-1_1675_2048" maskUnits="userSpaceOnUse" x="8" y="36" width="26" height="19" fill="black">
<rect fill="white" x="8" y="36" width="26" height="19"/>
<path d="M9 48.875C9 50.375 9.025 51.225 9.1 52.75C9.1 52.9 9.2 53 9.35 53C10.175 53.05 13.8 53.125 14.65 53.125C15.475 53.125 18.3 53.1 19.1 53.05C19.1 52.425 19.1 51.825 19.1 51.225C19.1 50.5 19.1 49.8 19.1 49.05C19.075 48.925 18.975 48.8 18.85 48.8C18 48.775 15.125 48.75 14.275 48.75H14.025V48.325C14.025 47.775 14.75 47.4 15.7 46.9C17.225 46.125 19.25 45 19.25 42.175C19.25 38.125 16.6 37.825 13.175 37.825C11.775 37.825 10.525 38.1 9.35 38.375L9.9 42.55C10.625 42.175 11.9 41.525 13.4 41.525C14.225 41.525 14.85 41.775 14.85 42.225C14.85 42.675 14.175 42.975 13.3 43.375C11.575 44.2 9 45.425 9 48.875ZM20.2467 45.5C20.2467 51.3 22.3717 53.15 27.1467 53.15C30.6717 52.975 32.6967 50.425 32.6967 45.5C32.6967 39.725 30.6467 37.825 25.8967 37.825C22.3717 38 20.2467 40.6 20.2467 45.5ZM25.3967 45.5C25.3967 42.525 25.7217 42.2 26.3967 42.2C27.0717 42.2 27.5217 42.525 27.5217 45.5C27.5217 48.475 27.1467 48.8 26.4717 48.8C25.7967 48.8 25.3967 48.475 25.3967 45.5Z"/>
</mask>
<path d="M9 48.875C9 50.375 9.025 51.225 9.1 52.75C9.1 52.9 9.2 53 9.35 53C10.175 53.05 13.8 53.125 14.65 53.125C15.475 53.125 18.3 53.1 19.1 53.05C19.1 52.425 19.1 51.825 19.1 51.225C19.1 50.5 19.1 49.8 19.1 49.05C19.075 48.925 18.975 48.8 18.85 48.8C18 48.775 15.125 48.75 14.275 48.75H14.025V48.325C14.025 47.775 14.75 47.4 15.7 46.9C17.225 46.125 19.25 45 19.25 42.175C19.25 38.125 16.6 37.825 13.175 37.825C11.775 37.825 10.525 38.1 9.35 38.375L9.9 42.55C10.625 42.175 11.9 41.525 13.4 41.525C14.225 41.525 14.85 41.775 14.85 42.225C14.85 42.675 14.175 42.975 13.3 43.375C11.575 44.2 9 45.425 9 48.875ZM20.2467 45.5C20.2467 51.3 22.3717 53.15 27.1467 53.15C30.6717 52.975 32.6967 50.425 32.6967 45.5C32.6967 39.725 30.6467 37.825 25.8967 37.825C22.3717 38 20.2467 40.6 20.2467 45.5ZM25.3967 45.5C25.3967 42.525 25.7217 42.2 26.3967 42.2C27.0717 42.2 27.5217 42.525 27.5217 45.5C27.5217 48.475 27.1467 48.8 26.4717 48.8C25.7967 48.8 25.3967 48.475 25.3967 45.5Z" fill="#5B15FF"/>
<path d="M9.1 52.75H10.1V52.7254L10.0988 52.7009L9.1 52.75ZM9.35 53L9.4105 52.0018L9.38028 52H9.35V53ZM19.1 53.05L19.1624 54.0481L20.1 53.9895V53.05H19.1ZM19.1 49.05H20.1V48.951L20.0806 48.8539L19.1 49.05ZM18.85 48.8L18.8206 49.7996L18.8353 49.8H18.85V48.8ZM14.025 48.75H13.025V49.75H14.025V48.75ZM15.7 46.9L15.247 46.0085L15.2406 46.0118L15.2343 46.0151L15.7 46.9ZM9.35 38.375L9.12212 37.4013L8.24028 37.6077L8.35857 38.5056L9.35 38.375ZM9.9 42.55L8.90857 42.6806L9.09456 44.0925L10.3594 43.4382L9.9 42.55ZM13.3 43.375L12.8842 42.4655L12.8764 42.4691L12.8685 42.4729L13.3 43.375ZM8 48.875C8 50.3938 8.02553 51.2604 8.10121 52.7991L10.0988 52.7009C10.0245 51.1896 10 50.3562 10 48.875H8ZM8.1 52.75C8.1 53.0522 8.20511 53.3818 8.46164 53.6384C8.71817 53.8949 9.04775 54 9.35 54V52C9.50225 52 9.70683 52.0551 9.87586 52.2241C10.0449 52.3932 10.1 52.5978 10.1 52.75H8.1ZM9.28951 53.9982C10.1438 54.0499 13.7917 54.125 14.65 54.125V52.125C13.8083 52.125 10.2062 52.0501 9.4105 52.0018L9.28951 53.9982ZM14.65 54.125C15.466 54.125 18.3249 54.1004 19.1624 54.0481L19.0376 52.0519C18.2751 52.0996 15.484 52.125 14.65 52.125V54.125ZM20.1 53.05C20.1 53.0488 20.1 53.0476 20.1 53.0463C20.1 53.0451 20.1 53.0439 20.1 53.0427C20.1 53.0415 20.1 53.0402 20.1 53.039C20.1 53.0378 20.1 53.0366 20.1 53.0354C20.1 53.0341 20.1 53.0329 20.1 53.0317C20.1 53.0305 20.1 53.0293 20.1 53.028C20.1 53.0268 20.1 53.0256 20.1 53.0244C20.1 53.0232 20.1 53.0219 20.1 53.0207C20.1 53.0195 20.1 53.0183 20.1 53.0171C20.1 53.0158 20.1 53.0146 20.1 53.0134C20.1 53.0122 20.1 53.011 20.1 53.0098C20.1 53.0085 20.1 53.0073 20.1 53.0061C20.1 53.0049 20.1 53.0037 20.1 53.0024C20.1 53.0012 20.1 53 20.1 52.9988C20.1 52.9976 20.1 52.9963 20.1 52.9951C20.1 52.9939 20.1 52.9927 20.1 52.9915C20.1 52.9903 20.1 52.989 20.1 52.9878C20.1 52.9866 20.1 52.9854 20.1 52.9842C20.1 52.983 20.1 52.9817 20.1 52.9805C20.1 52.9793 20.1 52.9781 20.1 52.9769C20.1 52.9757 20.1 52.9744 20.1 52.9732C20.1 52.972 20.1 52.9708 20.1 52.9696C20.1 52.9684 20.1 52.9671 20.1 52.9659C20.1 52.9647 20.1 52.9635 20.1 52.9623C20.1 52.9611 20.1 52.9598 20.1 52.9586C20.1 52.9574 20.1 52.9562 20.1 52.955C20.1 52.9538 20.1 52.9525 20.1 52.9513C20.1 52.9501 20.1 52.9489 20.1 52.9477C20.1 52.9465 20.1 52.9452 20.1 52.944C20.1 52.9428 20.1 52.9416 20.1 52.9404C20.1 52.9392 20.1 52.938 20.1 52.9367C20.1 52.9355 20.1 52.9343 20.1 52.9331C20.1 52.9319 20.1 52.9307 20.1 52.9295C20.1 52.9282 20.1 52.927 20.1 52.9258C20.1 52.9246 20.1 52.9234 20.1 52.9222C20.1 52.921 20.1 52.9197 20.1 52.9185C20.1 52.9173 20.1 52.9161 20.1 52.9149C20.1 52.9137 20.1 52.9125 20.1 52.9112C20.1 52.91 20.1 52.9088 20.1 52.9076C20.1 52.9064 20.1 52.9052 20.1 52.904C20.1 52.9027 20.1 52.9015 20.1 52.9003C20.1 52.8991 20.1 52.8979 20.1 52.8967C20.1 52.8955 20.1 52.8943 20.1 52.893C20.1 52.8918 20.1 52.8906 20.1 52.8894C20.1 52.8882 20.1 52.887 20.1 52.8858C20.1 52.8846 20.1 52.8833 20.1 52.8821C20.1 52.8809 20.1 52.8797 20.1 52.8785C20.1 52.8773 20.1 52.8761 20.1 52.8749C20.1 52.8736 20.1 52.8724 20.1 52.8712C20.1 52.87 20.1 52.8688 20.1 52.8676C20.1 52.8664 20.1 52.8652 20.1 52.864C20.1 52.8627 20.1 52.8615 20.1 52.8603C20.1 52.8591 20.1 52.8579 20.1 52.8567C20.1 52.8555 20.1 52.8543 20.1 52.8531C20.1 52.8518 20.1 52.8506 20.1 52.8494C20.1 52.8482 20.1 52.847 20.1 52.8458C20.1 52.8446 20.1 52.8434 20.1 52.8422C20.1 52.8409 20.1 52.8397 20.1 52.8385C20.1 52.8373 20.1 52.8361 20.1 52.8349C20.1 52.8337 20.1 52.8325 20.1 52.8313C20.1 52.8301 20.1 52.8288 20.1 52.8276C20.1 52.8264 20.1 52.8252 20.1 52.824C20.1 52.8228 20.1 52.8216 20.1 52.8204C20.1 52.8192 20.1 52.818 20.1 52.8167C20.1 52.8155 20.1 52.8143 20.1 52.8131C20.1 52.8119 20.1 52.8107 20.1 52.8095C20.1 52.8083 20.1 52.8071 20.1 52.8059C20.1 52.8047 20.1 52.8034 20.1 52.8022C20.1 52.801 20.1 52.7998 20.1 52.7986C20.1 52.7974 20.1 52.7962 20.1 52.795C20.1 52.7938 20.1 52.7926 20.1 52.7914C20.1 52.7902 20.1 52.7889 20.1 52.7877C20.1 52.7865 20.1 52.7853 20.1 52.7841C20.1 52.7829 20.1 52.7817 20.1 52.7805C20.1 52.7793 20.1 52.7781 20.1 52.7769C20.1 52.7757 20.1 52.7745 20.1 52.7733C20.1 52.772 20.1 52.7708 20.1 52.7696C20.1 52.7684 20.1 52.7672 20.1 52.766C20.1 52.7648 20.1 52.7636 20.1 52.7624C20.1 52.7612 20.1 52.76 20.1 52.7588C20.1 52.7576 20.1 52.7564 20.1 52.7551C20.1 52.7539 20.1 52.7527 20.1 52.7515C20.1 52.7503 20.1 52.7491 20.1 52.7479C20.1 52.7467 20.1 52.7455 20.1 52.7443C20.1 52.7431 20.1 52.7419 20.1 52.7407C20.1 52.7395 20.1 52.7383 20.1 52.7371C20.1 52.7359 20.1 52.7346 20.1 52.7334C20.1 52.7322 20.1 52.731 20.1 52.7298C20.1 52.7286 20.1 52.7274 20.1 52.7262C20.1 52.725 20.1 52.7238 20.1 52.7226C20.1 52.7214 20.1 52.7202 20.1 52.719C20.1 52.7178 20.1 52.7166 20.1 52.7154C20.1 52.7142 20.1 52.713 20.1 52.7117C20.1 52.7105 20.1 52.7093 20.1 52.7081C20.1 52.7069 20.1 52.7057 20.1 52.7045C20.1 52.7033 20.1 52.7021 20.1 52.7009C20.1 52.6997 20.1 52.6985 20.1 52.6973C20.1 52.6961 20.1 52.6949 20.1 52.6937C20.1 52.6925 20.1 52.6913 20.1 52.6901C20.1 52.6889 20.1 52.6877 20.1 52.6865C20.1 52.6853 20.1 52.6841 20.1 52.6829C20.1 52.6817 20.1 52.6804 20.1 52.6792C20.1 52.678 20.1 52.6768 20.1 52.6756C20.1 52.6744 20.1 52.6732 20.1 52.672C20.1 52.6708 20.1 52.6696 20.1 52.6684C20.1 52.6672 20.1 52.666 20.1 52.6648C20.1 52.6636 20.1 52.6624 20.1 52.6612C20.1 52.66 20.1 52.6588 20.1 52.6576C20.1 52.6564 20.1 52.6552 20.1 52.654C20.1 52.6528 20.1 52.6516 20.1 52.6504C20.1 52.6492 20.1 52.648 20.1 52.6468C20.1 52.6456 20.1 52.6444 20.1 52.6432C20.1 52.642 20.1 52.6408 20.1 52.6396C20.1 52.6384 20.1 52.6372 20.1 52.636C20.1 52.6348 20.1 52.6336 20.1 52.6324C20.1 52.6312 20.1 52.63 20.1 52.6288C20.1 52.6276 20.1 52.6264 20.1 52.6252C20.1 52.624 20.1 52.6227 20.1 52.6215C20.1 52.6203 20.1 52.6191 20.1 52.6179C20.1 52.6167 20.1 52.6155 20.1 52.6143C20.1 52.6131 20.1 52.6119 20.1 52.6107C20.1 52.6095 20.1 52.6083 20.1 52.6071C20.1 52.6059 20.1 52.6047 20.1 52.6035C20.1 52.6023 20.1 52.6011 20.1 52.5999C20.1 52.5987 20.1 52.5975 20.1 52.5963C20.1 52.5951 20.1 52.5939 20.1 52.5927C20.1 52.5915 20.1 52.5903 20.1 52.5891C20.1 52.5879 20.1 52.5867 20.1 52.5855C20.1 52.5843 20.1 52.5831 20.1 52.5819C20.1 52.5807 20.1 52.5795 20.1 52.5784C20.1 52.5772 20.1 52.576 20.1 52.5748C20.1 52.5736 20.1 52.5724 20.1 52.5712C20.1 52.57 20.1 52.5688 20.1 52.5676C20.1 52.5664 20.1 52.5652 20.1 52.564C20.1 52.5628 20.1 52.5616 20.1 52.5604C20.1 52.5592 20.1 52.558 20.1 52.5568C20.1 52.5556 20.1 52.5544 20.1 52.5532C20.1 52.552 20.1 52.5508 20.1 52.5496C20.1 52.5484 20.1 52.5472 20.1 52.546C20.1 52.5448 20.1 52.5436 20.1 52.5424C20.1 52.5412 20.1 52.54 20.1 52.5388C20.1 52.5376 20.1 52.5364 20.1 52.5352C20.1 52.534 20.1 52.5328 20.1 52.5316C20.1 52.5304 20.1 52.5292 20.1 52.528C20.1 52.5268 20.1 52.5256 20.1 52.5244C20.1 52.5232 20.1 52.522 20.1 52.5209C20.1 52.5197 20.1 52.5185 20.1 52.5173C20.1 52.5161 20.1 52.5149 20.1 52.5137C20.1 52.5125 20.1 52.5113 20.1 52.5101C20.1 52.5089 20.1 52.5077 20.1 52.5065C20.1 52.5053 20.1 52.5041 20.1 52.5029C20.1 52.5017 20.1 52.5005 20.1 52.4993C20.1 52.4981 20.1 52.4969 20.1 52.4957C20.1 52.4945 20.1 52.4933 20.1 52.4921C20.1 52.4909 20.1 52.4897 20.1 52.4886C20.1 52.4874 20.1 52.4862 20.1 52.485C20.1 52.4838 20.1 52.4826 20.1 52.4814C20.1 52.4802 20.1 52.479 20.1 52.4778C20.1 52.4766 20.1 52.4754 20.1 52.4742C20.1 52.473 20.1 52.4718 20.1 52.4706C20.1 52.4694 20.1 52.4682 20.1 52.467C20.1 52.4658 20.1 52.4646 20.1 52.4635C20.1 52.4623 20.1 52.4611 20.1 52.4599C20.1 52.4587 20.1 52.4575 20.1 52.4563C20.1 52.4551 20.1 52.4539 20.1 52.4527C20.1 52.4515 20.1 52.4503 20.1 52.4491C20.1 52.4479 20.1 52.4467 20.1 52.4455C20.1 52.4443 20.1 52.4432 20.1 52.442C20.1 52.4408 20.1 52.4396 20.1 52.4384C20.1 52.4372 20.1 52.436 20.1 52.4348C20.1 52.4336 20.1 52.4324 20.1 52.4312C20.1 52.43 20.1 52.4288 20.1 52.4276C20.1 52.4264 20.1 52.4252 20.1 52.4241C20.1 52.4229 20.1 52.4217 20.1 52.4205C20.1 52.4193 20.1 52.4181 20.1 52.4169C20.1 52.4157 20.1 52.4145 20.1 52.4133C20.1 52.4121 20.1 52.4109 20.1 52.4097C20.1 52.4085 20.1 52.4074 20.1 52.4062C20.1 52.405 20.1 52.4038 20.1 52.4026C20.1 52.4014 20.1 52.4002 20.1 52.399C20.1 52.3978 20.1 52.3966 20.1 52.3954C20.1 52.3942 20.1 52.393 20.1 52.3918C20.1 52.3907 20.1 52.3895 20.1 52.3883C20.1 52.3871 20.1 52.3859 20.1 52.3847C20.1 52.3835 20.1 52.3823 20.1 52.3811C20.1 52.3799 20.1 52.3787 20.1 52.3775C20.1 52.3764 20.1 52.3752 20.1 52.374C20.1 52.3728 20.1 52.3716 20.1 52.3704C20.1 52.3692 20.1 52.368 20.1 52.3668C20.1 52.3656 20.1 52.3644 20.1 52.3633C20.1 52.3621 20.1 52.3609 20.1 52.3597C20.1 52.3585 20.1 52.3573 20.1 52.3561C20.1 52.3549 20.1 52.3537 20.1 52.3525C20.1 52.3513 20.1 52.3501 20.1 52.349C20.1 52.3478 20.1 52.3466 20.1 52.3454C20.1 52.3442 20.1 52.343 20.1 52.3418C20.1 52.3406 20.1 52.3394 20.1 52.3382C20.1 52.3371 20.1 52.3359 20.1 52.3347C20.1 52.3335 20.1 52.3323 20.1 52.3311C20.1 52.3299 20.1 52.3287 20.1 52.3275C20.1 52.3263 20.1 52.3252 20.1 52.324C20.1 52.3228 20.1 52.3216 20.1 52.3204C20.1 52.3192 20.1 52.318 20.1 52.3168C20.1 52.3156 20.1 52.3144 20.1 52.3133C20.1 52.3121 20.1 52.3109 20.1 52.3097C20.1 52.3085 20.1 52.3073 20.1 52.3061C20.1 52.3049 20.1 52.3037 20.1 52.3026C20.1 52.3014 20.1 52.3002 20.1 52.299C20.1 52.2978 20.1 52.2966 20.1 52.2954C20.1 52.2942 20.1 52.293 20.1 52.2918C20.1 52.2907 20.1 52.2895 20.1 52.2883C20.1 52.2871 20.1 52.2859 20.1 52.2847C20.1 52.2835 20.1 52.2823 20.1 52.2812C20.1 52.28 20.1 52.2788 20.1 52.2776C20.1 52.2764 20.1 52.2752 20.1 52.274C20.1 52.2728 20.1 52.2716 20.1 52.2705C20.1 52.2693 20.1 52.2681 20.1 52.2669C20.1 52.2657 20.1 52.2645 20.1 52.2633C20.1 52.2621 20.1 52.261 20.1 52.2598C20.1 52.2586 20.1 52.2574 20.1 52.2562C20.1 52.255 20.1 52.2538 20.1 52.2526C20.1 52.2514 20.1 52.2503 20.1 52.2491C20.1 52.2479 20.1 52.2467 20.1 52.2455C20.1 52.2443 20.1 52.2431 20.1 52.2419C20.1 52.2408 20.1 52.2396 20.1 52.2384C20.1 52.2372 20.1 52.236 20.1 52.2348C20.1 52.2336 20.1 52.2325 20.1 52.2313C20.1 52.2301 20.1 52.2289 20.1 52.2277C20.1 52.2265 20.1 52.2253 20.1 52.2241C20.1 52.223 20.1 52.2218 20.1 52.2206C20.1 52.2194 20.1 52.2182 20.1 52.217C20.1 52.2158 20.1 52.2147 20.1 52.2135C20.1 52.2123 20.1 52.2111 20.1 52.2099C20.1 52.2087 20.1 52.2075 20.1 52.2063C20.1 52.2052 20.1 52.204 20.1 52.2028C20.1 52.2016 20.1 52.2004 20.1 52.1992C20.1 52.198 20.1 52.1969 20.1 52.1957C20.1 52.1945 20.1 52.1933 20.1 52.1921C20.1 52.1909 20.1 52.1897 20.1 52.1886C20.1 52.1874 20.1 52.1862 20.1 52.185C20.1 52.1838 20.1 52.1826 20.1 52.1814C20.1 52.1803 20.1 52.1791 20.1 52.1779C20.1 52.1767 20.1 52.1755 20.1 52.1743C20.1 52.1731 20.1 52.172 20.1 52.1708C20.1 52.1696 20.1 52.1684 20.1 52.1672C20.1 52.166 20.1 52.1648 20.1 52.1637C20.1 52.1625 20.1 52.1613 20.1 52.1601C20.1 52.1589 20.1 52.1577 20.1 52.1566C20.1 52.1554 20.1 52.1542 20.1 52.153C20.1 52.1518 20.1 52.1506 20.1 52.1494C20.1 52.1483 20.1 52.1471 20.1 52.1459C20.1 52.1447 20.1 52.1435 20.1 52.1423C20.1 52.1412 20.1 52.14 20.1 52.1388C20.1 52.1376 20.1 52.1364 20.1 52.1352C20.1 52.134 20.1 52.1329 20.1 52.1317C20.1 52.1305 20.1 52.1293 20.1 52.1281C20.1 52.1269 20.1 52.1258 20.1 52.1246C20.1 52.1234 20.1 52.1222 20.1 52.121C20.1 52.1198 20.1 52.1187 20.1 52.1175C20.1 52.1163 20.1 52.1151 20.1 52.1139C20.1 52.1127 20.1 52.1116 20.1 52.1104C20.1 52.1092 20.1 52.108 20.1 52.1068C20.1 52.1056 20.1 52.1045 20.1 52.1033C20.1 52.1021 20.1 52.1009 20.1 52.0997C20.1 52.0985 20.1 52.0973 20.1 52.0962C20.1 52.095 20.1 52.0938 20.1 52.0926C20.1 52.0914 20.1 52.0903 20.1 52.0891C20.1 52.0879 20.1 52.0867 20.1 52.0855C20.1 52.0843 20.1 52.0832 20.1 52.082C20.1 52.0808 20.1 52.0796 20.1 52.0784C20.1 52.0772 20.1 52.0761 20.1 52.0749C20.1 52.0737 20.1 52.0725 20.1 52.0713C20.1 52.0701 20.1 52.069 20.1 52.0678C20.1 52.0666 20.1 52.0654 20.1 52.0642C20.1 52.063 20.1 52.0619 20.1 52.0607C20.1 52.0595 20.1 52.0583 20.1 52.0571C20.1 52.056 20.1 52.0548 20.1 52.0536C20.1 52.0524 20.1 52.0512 20.1 52.05C20.1 52.0489 20.1 52.0477 20.1 52.0465C20.1 52.0453 20.1 52.0441 20.1 52.043C20.1 52.0418 20.1 52.0406 20.1 52.0394C20.1 52.0382 20.1 52.037 20.1 52.0359C20.1 52.0347 20.1 52.0335 20.1 52.0323C20.1 52.0311 20.1 52.03 20.1 52.0288C20.1 52.0276 20.1 52.0264 20.1 52.0252C20.1 52.024 20.1 52.0229 20.1 52.0217C20.1 52.0205 20.1 52.0193 20.1 52.0181C20.1 52.017 20.1 52.0158 20.1 52.0146C20.1 52.0134 20.1 52.0122 20.1 52.011C20.1 52.0099 20.1 52.0087 20.1 52.0075C20.1 52.0063 20.1 52.0051 20.1 52.004C20.1 52.0028 20.1 52.0016 20.1 52.0004C20.1 51.9992 20.1 51.9981 20.1 51.9969C20.1 51.9957 20.1 51.9945 20.1 51.9933C20.1 51.9922 20.1 51.991 20.1 51.9898C20.1 51.9886 20.1 51.9874 20.1 51.9863C20.1 51.9851 20.1 51.9839 20.1 51.9827C20.1 51.9815 20.1 51.9804 20.1 51.9792C20.1 51.978 20.1 51.9768 20.1 51.9756C20.1 51.9744 20.1 51.9733 20.1 51.9721C20.1 51.9709 20.1 51.9697 20.1 51.9685C20.1 51.9674 20.1 51.9662 20.1 51.965C20.1 51.9638 20.1 51.9626 20.1 51.9615C20.1 51.9603 20.1 51.9591 20.1 51.9579C20.1 51.9567 20.1 51.9556 20.1 51.9544C20.1 51.9532 20.1 51.952 20.1 51.9508C20.1 51.9497 20.1 51.9485 20.1 51.9473C20.1 51.9461 20.1 51.9449 20.1 51.9438C20.1 51.9426 20.1 51.9414 20.1 51.9402C20.1 51.9391 20.1 51.9379 20.1 51.9367C20.1 51.9355 20.1 51.9343 20.1 51.9332C20.1 51.932 20.1 51.9308 20.1 51.9296C20.1 51.9284 20.1 51.9273 20.1 51.9261C20.1 51.9249 20.1 51.9237 20.1 51.9225C20.1 51.9214 20.1 51.9202 20.1 51.919C20.1 51.9178 20.1 51.9166 20.1 51.9155C20.1 51.9143 20.1 51.9131 20.1 51.9119C20.1 51.9107 20.1 51.9096 20.1 51.9084C20.1 51.9072 20.1 51.906 20.1 51.9049C20.1 51.9037 20.1 51.9025 20.1 51.9013C20.1 51.9001 20.1 51.899 20.1 51.8978C20.1 51.8966 20.1 51.8954 20.1 51.8942C20.1 51.8931 20.1 51.8919 20.1 51.8907C20.1 51.8895 20.1 51.8884 20.1 51.8872C20.1 51.886 20.1 51.8848 20.1 51.8836C20.1 51.8825 20.1 51.8813 20.1 51.8801C20.1 51.8789 20.1 51.8777 20.1 51.8766C20.1 51.8754 20.1 51.8742 20.1 51.873C20.1 51.8719 20.1 51.8707 20.1 51.8695C20.1 51.8683 20.1 51.8671 20.1 51.866C20.1 51.8648 20.1 51.8636 20.1 51.8624C20.1 51.8613 20.1 51.8601 20.1 51.8589C20.1 51.8577 20.1 51.8565 20.1 51.8554C20.1 51.8542 20.1 51.853 20.1 51.8518C20.1 51.8507 20.1 51.8495 20.1 51.8483C20.1 51.8471 20.1 51.8459 20.1 51.8448C20.1 51.8436 20.1 51.8424 20.1 51.8412C20.1 51.8401 20.1 51.8389 20.1 51.8377C20.1 51.8365 20.1 51.8353 20.1 51.8342C20.1 51.833 20.1 51.8318 20.1 51.8306C20.1 51.8295 20.1 51.8283 20.1 51.8271C20.1 51.8259 20.1 51.8247 20.1 51.8236C20.1 51.8224 20.1 51.8212 20.1 51.82C20.1 51.8189 20.1 51.8177 20.1 51.8165C20.1 51.8153 20.1 51.8142 20.1 51.813C20.1 51.8118 20.1 51.8106 20.1 51.8094C20.1 51.8083 20.1 51.8071 20.1 51.8059C20.1 51.8047 20.1 51.8036 20.1 51.8024C20.1 51.8012 20.1 51.8 20.1 51.7989C20.1 51.7977 20.1 51.7965 20.1 51.7953C20.1 51.7941 20.1 51.793 20.1 51.7918C20.1 51.7906 20.1 51.7894 20.1 51.7883C20.1 51.7871 20.1 51.7859 20.1 51.7847C20.1 51.7836 20.1 51.7824 20.1 51.7812C20.1 51.78 20.1 51.7789 20.1 51.7777C20.1 51.7765 20.1 51.7753 20.1 51.7741C20.1 51.773 20.1 51.7718 20.1 51.7706C20.1 51.7694 20.1 51.7683 20.1 51.7671C20.1 51.7659 20.1 51.7647 20.1 51.7636C20.1 51.7624 20.1 51.7612 20.1 51.76C20.1 51.7589 20.1 51.7577 20.1 51.7565C20.1 51.7553 20.1 51.7541 20.1 51.753C20.1 51.7518 20.1 51.7506 20.1 51.7494C20.1 51.7483 20.1 51.7471 20.1 51.7459C20.1 51.7447 20.1 51.7436 20.1 51.7424C20.1 51.7412 20.1 51.74 20.1 51.7389C20.1 51.7377 20.1 51.7365 20.1 51.7353C20.1 51.7342 20.1 51.733 20.1 51.7318C20.1 51.7306 20.1 51.7295 20.1 51.7283C20.1 51.7271 20.1 51.7259 20.1 51.7248C20.1 51.7236 20.1 51.7224 20.1 51.7212C20.1 51.72 20.1 51.7189 20.1 51.7177C20.1 51.7165 20.1 51.7153 20.1 51.7142C20.1 51.713 20.1 51.7118 20.1 51.7106C20.1 51.7095 20.1 51.7083 20.1 51.7071C20.1 51.7059 20.1 51.7048 20.1 51.7036C20.1 51.7024 20.1 51.7012 20.1 51.7001C20.1 51.6989 20.1 51.6977 20.1 51.6965C20.1 51.6954 20.1 51.6942 20.1 51.693C20.1 51.6918 20.1 51.6907 20.1 51.6895C20.1 51.6883 20.1 51.6871 20.1 51.686C20.1 51.6848 20.1 51.6836 20.1 51.6824C20.1 51.6813 20.1 51.6801 20.1 51.6789C20.1 51.6777 20.1 51.6766 20.1 51.6754C20.1 51.6742 20.1 51.673 20.1 51.6719C20.1 51.6707 20.1 51.6695 20.1 51.6683C20.1 51.6672 20.1 51.666 20.1 51.6648C20.1 51.6636 20.1 51.6625 20.1 51.6613C20.1 51.6601 20.1 51.6589 20.1 51.6578C20.1 51.6566 20.1 51.6554 20.1 51.6542C20.1 51.6531 20.1 51.6519 20.1 51.6507C20.1 51.6495 20.1 51.6484 20.1 51.6472C20.1 51.646 20.1 51.6448 20.1 51.6437C20.1 51.6425 20.1 51.6413 20.1 51.6402C20.1 51.639 20.1 51.6378 20.1 51.6366C20.1 51.6355 20.1 51.6343 20.1 51.6331C20.1 51.6319 20.1 51.6308 20.1 51.6296C20.1 51.6284 20.1 51.6272 20.1 51.6261C20.1 51.6249 20.1 51.6237 20.1 51.6225C20.1 51.6214 20.1 51.6202 20.1 51.619C20.1 51.6178 20.1 51.6167 20.1 51.6155C20.1 51.6143 20.1 51.6131 20.1 51.612C20.1 51.6108 20.1 51.6096 20.1 51.6084C20.1 51.6073 20.1 51.6061 20.1 51.6049C20.1 51.6037 20.1 51.6026 20.1 51.6014C20.1 51.6002 20.1 51.5991 20.1 51.5979C20.1 51.5967 20.1 51.5955 20.1 51.5944C20.1 51.5932 20.1 51.592 20.1 51.5908C20.1 51.5897 20.1 51.5885 20.1 51.5873C20.1 51.5861 20.1 51.585 20.1 51.5838C20.1 51.5826 20.1 51.5814 20.1 51.5803C20.1 51.5791 20.1 51.5779 20.1 51.5767C20.1 51.5756 20.1 51.5744 20.1 51.5732C20.1 51.5721 20.1 51.5709 20.1 51.5697C20.1 51.5685 20.1 51.5674 20.1 51.5662C20.1 51.565 20.1 51.5638 20.1 51.5627C20.1 51.5615 20.1 51.5603 20.1 51.5591C20.1 51.558 20.1 51.5568 20.1 51.5556C20.1 51.5544 20.1 51.5533 20.1 51.5521C20.1 51.5509 20.1 51.5498 20.1 51.5486C20.1 51.5474 20.1 51.5462 20.1 51.5451C20.1 51.5439 20.1 51.5427 20.1 51.5415C20.1 51.5404 20.1 51.5392 20.1 51.538C20.1 51.5368 20.1 51.5357 20.1 51.5345C20.1 51.5333 20.1 51.5322 20.1 51.531C20.1 51.5298 20.1 51.5286 20.1 51.5275C20.1 51.5263 20.1 51.5251 20.1 51.5239C20.1 51.5228 20.1 51.5216 20.1 51.5204C20.1 51.5192 20.1 51.5181 20.1 51.5169C20.1 51.5157 20.1 51.5146 20.1 51.5134C20.1 51.5122 20.1 51.511 20.1 51.5099C20.1 51.5087 20.1 51.5075 20.1 51.5063C20.1 51.5052 20.1 51.504 20.1 51.5028C20.1 51.5017 20.1 51.5005 20.1 51.4993C20.1 51.4981 20.1 51.497 20.1 51.4958C20.1 51.4946 20.1 51.4934 20.1 51.4923C20.1 51.4911 20.1 51.4899 20.1 51.4888C20.1 51.4876 20.1 51.4864 20.1 51.4852C20.1 51.4841 20.1 51.4829 20.1 51.4817C20.1 51.4805 20.1 51.4794 20.1 51.4782C20.1 51.477 20.1 51.4758 20.1 51.4747C20.1 51.4735 20.1 51.4723 20.1 51.4712C20.1 51.47 20.1 51.4688 20.1 51.4676C20.1 51.4665 20.1 51.4653 20.1 51.4641C20.1 51.4629 20.1 51.4618 20.1 51.4606C20.1 51.4594 20.1 51.4583 20.1 51.4571C20.1 51.4559 20.1 51.4547 20.1 51.4536C20.1 51.4524 20.1 51.4512 20.1 51.45C20.1 51.4489 20.1 51.4477 20.1 51.4465C20.1 51.4454 20.1 51.4442 20.1 51.443C20.1 51.4418 20.1 51.4407 20.1 51.4395C20.1 51.4383 20.1 51.4372 20.1 51.436C20.1 51.4348 20.1 51.4336 20.1 51.4325C20.1 51.4313 20.1 51.4301 20.1 51.4289C20.1 51.4278 20.1 51.4266 20.1 51.4254C20.1 51.4243 20.1 51.4231 20.1 51.4219C20.1 51.4207 20.1 51.4196 20.1 51.4184C20.1 51.4172 20.1 51.416 20.1 51.4149C20.1 51.4137 20.1 51.4125 20.1 51.4114C20.1 51.4102 20.1 51.409 20.1 51.4078C20.1 51.4067 20.1 51.4055 20.1 51.4043C20.1 51.4031 20.1 51.402 20.1 51.4008C20.1 51.3996 20.1 51.3985 20.1 51.3973C20.1 51.3961 20.1 51.3949 20.1 51.3938C20.1 51.3926 20.1 51.3914 20.1 51.3903C20.1 51.3891 20.1 51.3879 20.1 51.3867C20.1 51.3856 20.1 51.3844 20.1 51.3832C20.1 51.382 20.1 51.3809 20.1 51.3797C20.1 51.3785 20.1 51.3774 20.1 51.3762C20.1 51.375 20.1 51.3738 20.1 51.3727C20.1 51.3715 20.1 51.3703 20.1 51.3692C20.1 51.368 20.1 51.3668 20.1 51.3656C20.1 51.3645 20.1 51.3633 20.1 51.3621C20.1 51.3609 20.1 51.3598 20.1 51.3586C20.1 51.3574 20.1 51.3563 20.1 51.3551C20.1 51.3539 20.1 51.3527 20.1 51.3516C20.1 51.3504 20.1 51.3492 20.1 51.3481C20.1 51.3469 20.1 51.3457 20.1 51.3445C20.1 51.3434 20.1 51.3422 20.1 51.341C20.1 51.3398 20.1 51.3387 20.1 51.3375C20.1 51.3363 20.1 51.3352 20.1 51.334C20.1 51.3328 20.1 51.3316 20.1 51.3305C20.1 51.3293 20.1 51.3281 20.1 51.327C20.1 51.3258 20.1 51.3246 20.1 51.3234C20.1 51.3223 20.1 51.3211 20.1 51.3199C20.1 51.3188 20.1 51.3176 20.1 51.3164C20.1 51.3152 20.1 51.3141 20.1 51.3129C20.1 51.3117 20.1 51.3105 20.1 51.3094C20.1 51.3082 20.1 51.307 20.1 51.3059C20.1 51.3047 20.1 51.3035 20.1 51.3023C20.1 51.3012 20.1 51.3 20.1 51.2988C20.1 51.2977 20.1 51.2965 20.1 51.2953C20.1 51.2941 20.1 51.293 20.1 51.2918C20.1 51.2906 20.1 51.2895 20.1 51.2883C20.1 51.2871 20.1 51.2859 20.1 51.2848C20.1 51.2836 20.1 51.2824 20.1 51.2812C20.1 51.2801 20.1 51.2789 20.1 51.2777C20.1 51.2766 20.1 51.2754 20.1 51.2742C20.1 51.273 20.1 51.2719 20.1 51.2707C20.1 51.2695 20.1 51.2684 20.1 51.2672C20.1 51.266 20.1 51.2648 20.1 51.2637C20.1 51.2625 20.1 51.2613 20.1 51.2602C20.1 51.259 20.1 51.2578 20.1 51.2566C20.1 51.2555 20.1 51.2543 20.1 51.2531C20.1 51.252 20.1 51.2508 20.1 51.2496C20.1 51.2484 20.1 51.2473 20.1 51.2461C20.1 51.2449 20.1 51.2437 20.1 51.2426C20.1 51.2414 20.1 51.2402 20.1 51.2391C20.1 51.2379 20.1 51.2367 20.1 51.2355C20.1 51.2344 20.1 51.2332 20.1 51.232C20.1 51.2309 20.1 51.2297 20.1 51.2285C20.1 51.2273 20.1 51.2262 20.1 51.225H18.1C18.1 51.2262 18.1 51.2273 18.1 51.2285C18.1 51.2297 18.1 51.2309 18.1 51.232C18.1 51.2332 18.1 51.2344 18.1 51.2355C18.1 51.2367 18.1 51.2379 18.1 51.2391C18.1 51.2402 18.1 51.2414 18.1 51.2426C18.1 51.2437 18.1 51.2449 18.1 51.2461C18.1 51.2473 18.1 51.2484 18.1 51.2496C18.1 51.2508 18.1 51.252 18.1 51.2531C18.1 51.2543 18.1 51.2555 18.1 51.2566C18.1 51.2578 18.1 51.259 18.1 51.2602C18.1 51.2613 18.1 51.2625 18.1 51.2637C18.1 51.2648 18.1 51.266 18.1 51.2672C18.1 51.2684 18.1 51.2695 18.1 51.2707C18.1 51.2719 18.1 51.273 18.1 51.2742C18.1 51.2754 18.1 51.2766 18.1 51.2777C18.1 51.2789 18.1 51.2801 18.1 51.2812C18.1 51.2824 18.1 51.2836 18.1 51.2848C18.1 51.2859 18.1 51.2871 18.1 51.2883C18.1 51.2895 18.1 51.2906 18.1 51.2918C18.1 51.293 18.1 51.2941 18.1 51.2953C18.1 51.2965 18.1 51.2977 18.1 51.2988C18.1 51.3 18.1 51.3012 18.1 51.3023C18.1 51.3035 18.1 51.3047 18.1 51.3059C18.1 51.307 18.1 51.3082 18.1 51.3094C18.1 51.3105 18.1 51.3117 18.1 51.3129C18.1 51.3141 18.1 51.3152 18.1 51.3164C18.1 51.3176 18.1 51.3188 18.1 51.3199C18.1 51.3211 18.1 51.3223 18.1 51.3234C18.1 51.3246 18.1 51.3258 18.1 51.327C18.1 51.3281 18.1 51.3293 18.1 51.3305C18.1 51.3316 18.1 51.3328 18.1 51.334C18.1 51.3352 18.1 51.3363 18.1 51.3375C18.1 51.3387 18.1 51.3398 18.1 51.341C18.1 51.3422 18.1 51.3434 18.1 51.3445C18.1 51.3457 18.1 51.3469 18.1 51.3481C18.1 51.3492 18.1 51.3504 18.1 51.3516C18.1 51.3527 18.1 51.3539 18.1 51.3551C18.1 51.3563 18.1 51.3574 18.1 51.3586C18.1 51.3598 18.1 51.3609 18.1 51.3621C18.1 51.3633 18.1 51.3645 18.1 51.3656C18.1 51.3668 18.1 51.368 18.1 51.3692C18.1 51.3703 18.1 51.3715 18.1 51.3727C18.1 51.3738 18.1 51.375 18.1 51.3762C18.1 51.3774 18.1 51.3785 18.1 51.3797C18.1 51.3809 18.1 51.382 18.1 51.3832C18.1 51.3844 18.1 51.3856 18.1 51.3867C18.1 51.3879 18.1 51.3891 18.1 51.3903C18.1 51.3914 18.1 51.3926 18.1 51.3938C18.1 51.3949 18.1 51.3961 18.1 51.3973C18.1 51.3985 18.1 51.3996 18.1 51.4008C18.1 51.402 18.1 51.4031 18.1 51.4043C18.1 51.4055 18.1 51.4067 18.1 51.4078C18.1 51.409 18.1 51.4102 18.1 51.4114C18.1 51.4125 18.1 51.4137 18.1 51.4149C18.1 51.416 18.1 51.4172 18.1 51.4184C18.1 51.4196 18.1 51.4207 18.1 51.4219C18.1 51.4231 18.1 51.4243 18.1 51.4254C18.1 51.4266 18.1 51.4278 18.1 51.4289C18.1 51.4301 18.1 51.4313 18.1 51.4325C18.1 51.4336 18.1 51.4348 18.1 51.436C18.1 51.4372 18.1 51.4383 18.1 51.4395C18.1 51.4407 18.1 51.4418 18.1 51.443C18.1 51.4442 18.1 51.4454 18.1 51.4465C18.1 51.4477 18.1 51.4489 18.1 51.45C18.1 51.4512 18.1 51.4524 18.1 51.4536C18.1 51.4547 18.1 51.4559 18.1 51.4571C18.1 51.4583 18.1 51.4594 18.1 51.4606C18.1 51.4618 18.1 51.4629 18.1 51.4641C18.1 51.4653 18.1 51.4665 18.1 51.4676C18.1 51.4688 18.1 51.47 18.1 51.4712C18.1 51.4723 18.1 51.4735 18.1 51.4747C18.1 51.4758 18.1 51.477 18.1 51.4782C18.1 51.4794 18.1 51.4805 18.1 51.4817C18.1 51.4829 18.1 51.4841 18.1 51.4852C18.1 51.4864 18.1 51.4876 18.1 51.4888C18.1 51.4899 18.1 51.4911 18.1 51.4923C18.1 51.4934 18.1 51.4946 18.1 51.4958C18.1 51.497 18.1 51.4981 18.1 51.4993C18.1 51.5005 18.1 51.5017 18.1 51.5028C18.1 51.504 18.1 51.5052 18.1 51.5063C18.1 51.5075 18.1 51.5087 18.1 51.5099C18.1 51.511 18.1 51.5122 18.1 51.5134C18.1 51.5146 18.1 51.5157 18.1 51.5169C18.1 51.5181 18.1 51.5192 18.1 51.5204C18.1 51.5216 18.1 51.5228 18.1 51.5239C18.1 51.5251 18.1 51.5263 18.1 51.5275C18.1 51.5286 18.1 51.5298 18.1 51.531C18.1 51.5322 18.1 51.5333 18.1 51.5345C18.1 51.5357 18.1 51.5368 18.1 51.538C18.1 51.5392 18.1 51.5404 18.1 51.5415C18.1 51.5427 18.1 51.5439 18.1 51.5451C18.1 51.5462 18.1 51.5474 18.1 51.5486C18.1 51.5498 18.1 51.5509 18.1 51.5521C18.1 51.5533 18.1 51.5544 18.1 51.5556C18.1 51.5568 18.1 51.558 18.1 51.5591C18.1 51.5603 18.1 51.5615 18.1 51.5627C18.1 51.5638 18.1 51.565 18.1 51.5662C18.1 51.5674 18.1 51.5685 18.1 51.5697C18.1 51.5709 18.1 51.5721 18.1 51.5732C18.1 51.5744 18.1 51.5756 18.1 51.5767C18.1 51.5779 18.1 51.5791 18.1 51.5803C18.1 51.5814 18.1 51.5826 18.1 51.5838C18.1 51.585 18.1 51.5861 18.1 51.5873C18.1 51.5885 18.1 51.5897 18.1 51.5908C18.1 51.592 18.1 51.5932 18.1 51.5944C18.1 51.5955 18.1 51.5967 18.1 51.5979C18.1 51.5991 18.1 51.6002 18.1 51.6014C18.1 51.6026 18.1 51.6037 18.1 51.6049C18.1 51.6061 18.1 51.6073 18.1 51.6084C18.1 51.6096 18.1 51.6108 18.1 51.612C18.1 51.6131 18.1 51.6143 18.1 51.6155C18.1 51.6167 18.1 51.6178 18.1 51.619C18.1 51.6202 18.1 51.6214 18.1 51.6225C18.1 51.6237 18.1 51.6249 18.1 51.6261C18.1 51.6272 18.1 51.6284 18.1 51.6296C18.1 51.6308 18.1 51.6319 18.1 51.6331C18.1 51.6343 18.1 51.6355 18.1 51.6366C18.1 51.6378 18.1 51.639 18.1 51.6402C18.1 51.6413 18.1 51.6425 18.1 51.6437C18.1 51.6448 18.1 51.646 18.1 51.6472C18.1 51.6484 18.1 51.6495 18.1 51.6507C18.1 51.6519 18.1 51.6531 18.1 51.6542C18.1 51.6554 18.1 51.6566 18.1 51.6578C18.1 51.6589 18.1 51.6601 18.1 51.6613C18.1 51.6625 18.1 51.6636 18.1 51.6648C18.1 51.666 18.1 51.6672 18.1 51.6683C18.1 51.6695 18.1 51.6707 18.1 51.6719C18.1 51.673 18.1 51.6742 18.1 51.6754C18.1 51.6766 18.1 51.6777 18.1 51.6789C18.1 51.6801 18.1 51.6813 18.1 51.6824C18.1 51.6836 18.1 51.6848 18.1 51.686C18.1 51.6871 18.1 51.6883 18.1 51.6895C18.1 51.6907 18.1 51.6918 18.1 51.693C18.1 51.6942 18.1 51.6954 18.1 51.6965C18.1 51.6977 18.1 51.6989 18.1 51.7001C18.1 51.7012 18.1 51.7024 18.1 51.7036C18.1 51.7048 18.1 51.7059 18.1 51.7071C18.1 51.7083 18.1 51.7095 18.1 51.7106C18.1 51.7118 18.1 51.713 18.1 51.7142C18.1 51.7153 18.1 51.7165 18.1 51.7177C18.1 51.7189 18.1 51.72 18.1 51.7212C18.1 51.7224 18.1 51.7236 18.1 51.7248C18.1 51.7259 18.1 51.7271 18.1 51.7283C18.1 51.7295 18.1 51.7306 18.1 51.7318C18.1 51.733 18.1 51.7342 18.1 51.7353C18.1 51.7365 18.1 51.7377 18.1 51.7389C18.1 51.74 18.1 51.7412 18.1 51.7424C18.1 51.7436 18.1 51.7447 18.1 51.7459C18.1 51.7471 18.1 51.7483 18.1 51.7494C18.1 51.7506 18.1 51.7518 18.1 51.753C18.1 51.7541 18.1 51.7553 18.1 51.7565C18.1 51.7577 18.1 51.7589 18.1 51.76C18.1 51.7612 18.1 51.7624 18.1 51.7636C18.1 51.7647 18.1 51.7659 18.1 51.7671C18.1 51.7683 18.1 51.7694 18.1 51.7706C18.1 51.7718 18.1 51.773 18.1 51.7741C18.1 51.7753 18.1 51.7765 18.1 51.7777C18.1 51.7789 18.1 51.78 18.1 51.7812C18.1 51.7824 18.1 51.7836 18.1 51.7847C18.1 51.7859 18.1 51.7871 18.1 51.7883C18.1 51.7894 18.1 51.7906 18.1 51.7918C18.1 51.793 18.1 51.7941 18.1 51.7953C18.1 51.7965 18.1 51.7977 18.1 51.7989C18.1 51.8 18.1 51.8012 18.1 51.8024C18.1 51.8036 18.1 51.8047 18.1 51.8059C18.1 51.8071 18.1 51.8083 18.1 51.8094C18.1 51.8106 18.1 51.8118 18.1 51.813C18.1 51.8142 18.1 51.8153 18.1 51.8165C18.1 51.8177 18.1 51.8189 18.1 51.82C18.1 51.8212 18.1 51.8224 18.1 51.8236C18.1 51.8247 18.1 51.8259 18.1 51.8271C18.1 51.8283 18.1 51.8295 18.1 51.8306C18.1 51.8318 18.1 51.833 18.1 51.8342C18.1 51.8353 18.1 51.8365 18.1 51.8377C18.1 51.8389 18.1 51.8401 18.1 51.8412C18.1 51.8424 18.1 51.8436 18.1 51.8448C18.1 51.8459 18.1 51.8471 18.1 51.8483C18.1 51.8495 18.1 51.8507 18.1 51.8518C18.1 51.853 18.1 51.8542 18.1 51.8554C18.1 51.8565 18.1 51.8577 18.1 51.8589C18.1 51.8601 18.1 51.8613 18.1 51.8624C18.1 51.8636 18.1 51.8648 18.1 51.866C18.1 51.8671 18.1 51.8683 18.1 51.8695C18.1 51.8707 18.1 51.8719 18.1 51.873C18.1 51.8742 18.1 51.8754 18.1 51.8766C18.1 51.8777 18.1 51.8789 18.1 51.8801C18.1 51.8813 18.1 51.8825 18.1 51.8836C18.1 51.8848 18.1 51.886 18.1 51.8872C18.1 51.8884 18.1 51.8895 18.1 51.8907C18.1 51.8919 18.1 51.8931 18.1 51.8942C18.1 51.8954 18.1 51.8966 18.1 51.8978C18.1 51.899 18.1 51.9001 18.1 51.9013C18.1 51.9025 18.1 51.9037 18.1 51.9049C18.1 51.906 18.1 51.9072 18.1 51.9084C18.1 51.9096 18.1 51.9107 18.1 51.9119C18.1 51.9131 18.1 51.9143 18.1 51.9155C18.1 51.9166 18.1 51.9178 18.1 51.919C18.1 51.9202 18.1 51.9214 18.1 51.9225C18.1 51.9237 18.1 51.9249 18.1 51.9261C18.1 51.9273 18.1 51.9284 18.1 51.9296C18.1 51.9308 18.1 51.932 18.1 51.9332C18.1 51.9343 18.1 51.9355 18.1 51.9367C18.1 51.9379 18.1 51.9391 18.1 51.9402C18.1 51.9414 18.1 51.9426 18.1 51.9438C18.1 51.9449 18.1 51.9461 18.1 51.9473C18.1 51.9485 18.1 51.9497 18.1 51.9508C18.1 51.952 18.1 51.9532 18.1 51.9544C18.1 51.9556 18.1 51.9567 18.1 51.9579C18.1 51.9591 18.1 51.9603 18.1 51.9615C18.1 51.9626 18.1 51.9638 18.1 51.965C18.1 51.9662 18.1 51.9674 18.1 51.9685C18.1 51.9697 18.1 51.9709 18.1 51.9721C18.1 51.9733 18.1 51.9744 18.1 51.9756C18.1 51.9768 18.1 51.978 18.1 51.9792C18.1 51.9804 18.1 51.9815 18.1 51.9827C18.1 51.9839 18.1 51.9851 18.1 51.9863C18.1 51.9874 18.1 51.9886 18.1 51.9898C18.1 51.991 18.1 51.9922 18.1 51.9933C18.1 51.9945 18.1 51.9957 18.1 51.9969C18.1 51.9981 18.1 51.9992 18.1 52.0004C18.1 52.0016 18.1 52.0028 18.1 52.004C18.1 52.0051 18.1 52.0063 18.1 52.0075C18.1 52.0087 18.1 52.0099 18.1 52.011C18.1 52.0122 18.1 52.0134 18.1 52.0146C18.1 52.0158 18.1 52.017 18.1 52.0181C18.1 52.0193 18.1 52.0205 18.1 52.0217C18.1 52.0229 18.1 52.024 18.1 52.0252C18.1 52.0264 18.1 52.0276 18.1 52.0288C18.1 52.03 18.1 52.0311 18.1 52.0323C18.1 52.0335 18.1 52.0347 18.1 52.0359C18.1 52.037 18.1 52.0382 18.1 52.0394C18.1 52.0406 18.1 52.0418 18.1 52.043C18.1 52.0441 18.1 52.0453 18.1 52.0465C18.1 52.0477 18.1 52.0489 18.1 52.05C18.1 52.0512 18.1 52.0524 18.1 52.0536C18.1 52.0548 18.1 52.056 18.1 52.0571C18.1 52.0583 18.1 52.0595 18.1 52.0607C18.1 52.0619 18.1 52.063 18.1 52.0642C18.1 52.0654 18.1 52.0666 18.1 52.0678C18.1 52.069 18.1 52.0701 18.1 52.0713C18.1 52.0725 18.1 52.0737 18.1 52.0749C18.1 52.0761 18.1 52.0772 18.1 52.0784C18.1 52.0796 18.1 52.0808 18.1 52.082C18.1 52.0832 18.1 52.0843 18.1 52.0855C18.1 52.0867 18.1 52.0879 18.1 52.0891C18.1 52.0903 18.1 52.0914 18.1 52.0926C18.1 52.0938 18.1 52.095 18.1 52.0962C18.1 52.0973 18.1 52.0985 18.1 52.0997C18.1 52.1009 18.1 52.1021 18.1 52.1033C18.1 52.1045 18.1 52.1056 18.1 52.1068C18.1 52.108 18.1 52.1092 18.1 52.1104C18.1 52.1116 18.1 52.1127 18.1 52.1139C18.1 52.1151 18.1 52.1163 18.1 52.1175C18.1 52.1187 18.1 52.1198 18.1 52.121C18.1 52.1222 18.1 52.1234 18.1 52.1246C18.1 52.1258 18.1 52.1269 18.1 52.1281C18.1 52.1293 18.1 52.1305 18.1 52.1317C18.1 52.1329 18.1 52.134 18.1 52.1352C18.1 52.1364 18.1 52.1376 18.1 52.1388C18.1 52.14 18.1 52.1412 18.1 52.1423C18.1 52.1435 18.1 52.1447 18.1 52.1459C18.1 52.1471 18.1 52.1483 18.1 52.1494C18.1 52.1506 18.1 52.1518 18.1 52.153C18.1 52.1542 18.1 52.1554 18.1 52.1566C18.1 52.1577 18.1 52.1589 18.1 52.1601C18.1 52.1613 18.1 52.1625 18.1 52.1637C18.1 52.1648 18.1 52.166 18.1 52.1672C18.1 52.1684 18.1 52.1696 18.1 52.1708C18.1 52.172 18.1 52.1731 18.1 52.1743C18.1 52.1755 18.1 52.1767 18.1 52.1779C18.1 52.1791 18.1 52.1803 18.1 52.1814C18.1 52.1826 18.1 52.1838 18.1 52.185C18.1 52.1862 18.1 52.1874 18.1 52.1886C18.1 52.1897 18.1 52.1909 18.1 52.1921C18.1 52.1933 18.1 52.1945 18.1 52.1957C18.1 52.1969 18.1 52.198 18.1 52.1992C18.1 52.2004 18.1 52.2016 18.1 52.2028C18.1 52.204 18.1 52.2052 18.1 52.2063C18.1 52.2075 18.1 52.2087 18.1 52.2099C18.1 52.2111 18.1 52.2123 18.1 52.2135C18.1 52.2147 18.1 52.2158 18.1 52.217C18.1 52.2182 18.1 52.2194 18.1 52.2206C18.1 52.2218 18.1 52.223 18.1 52.2241C18.1 52.2253 18.1 52.2265 18.1 52.2277C18.1 52.2289 18.1 52.2301 18.1 52.2313C18.1 52.2325 18.1 52.2336 18.1 52.2348C18.1 52.236 18.1 52.2372 18.1 52.2384C18.1 52.2396 18.1 52.2408 18.1 52.2419C18.1 52.2431 18.1 52.2443 18.1 52.2455C18.1 52.2467 18.1 52.2479 18.1 52.2491C18.1 52.2503 18.1 52.2514 18.1 52.2526C18.1 52.2538 18.1 52.255 18.1 52.2562C18.1 52.2574 18.1 52.2586 18.1 52.2598C18.1 52.261 18.1 52.2621 18.1 52.2633C18.1 52.2645 18.1 52.2657 18.1 52.2669C18.1 52.2681 18.1 52.2693 18.1 52.2705C18.1 52.2716 18.1 52.2728 18.1 52.274C18.1 52.2752 18.1 52.2764 18.1 52.2776C18.1 52.2788 18.1 52.28 18.1 52.2812C18.1 52.2823 18.1 52.2835 18.1 52.2847C18.1 52.2859 18.1 52.2871 18.1 52.2883C18.1 52.2895 18.1 52.2907 18.1 52.2918C18.1 52.293 18.1 52.2942 18.1 52.2954C18.1 52.2966 18.1 52.2978 18.1 52.299C18.1 52.3002 18.1 52.3014 18.1 52.3026C18.1 52.3037 18.1 52.3049 18.1 52.3061C18.1 52.3073 18.1 52.3085 18.1 52.3097C18.1 52.3109 18.1 52.3121 18.1 52.3133C18.1 52.3144 18.1 52.3156 18.1 52.3168C18.1 52.318 18.1 52.3192 18.1 52.3204C18.1 52.3216 18.1 52.3228 18.1 52.324C18.1 52.3252 18.1 52.3263 18.1 52.3275C18.1 52.3287 18.1 52.3299 18.1 52.3311C18.1 52.3323 18.1 52.3335 18.1 52.3347C18.1 52.3359 18.1 52.3371 18.1 52.3382C18.1 52.3394 18.1 52.3406 18.1 52.3418C18.1 52.343 18.1 52.3442 18.1 52.3454C18.1 52.3466 18.1 52.3478 18.1 52.349C18.1 52.3501 18.1 52.3513 18.1 52.3525C18.1 52.3537 18.1 52.3549 18.1 52.3561C18.1 52.3573 18.1 52.3585 18.1 52.3597C18.1 52.3609 18.1 52.3621 18.1 52.3633C18.1 52.3644 18.1 52.3656 18.1 52.3668C18.1 52.368 18.1 52.3692 18.1 52.3704C18.1 52.3716 18.1 52.3728 18.1 52.374C18.1 52.3752 18.1 52.3764 18.1 52.3775C18.1 52.3787 18.1 52.3799 18.1 52.3811C18.1 52.3823 18.1 52.3835 18.1 52.3847C18.1 52.3859 18.1 52.3871 18.1 52.3883C18.1 52.3895 18.1 52.3907 18.1 52.3918C18.1 52.393 18.1 52.3942 18.1 52.3954C18.1 52.3966 18.1 52.3978 18.1 52.399C18.1 52.4002 18.1 52.4014 18.1 52.4026C18.1 52.4038 18.1 52.405 18.1 52.4062C18.1 52.4074 18.1 52.4085 18.1 52.4097C18.1 52.4109 18.1 52.4121 18.1 52.4133C18.1 52.4145 18.1 52.4157 18.1 52.4169C18.1 52.4181 18.1 52.4193 18.1 52.4205C18.1 52.4217 18.1 52.4229 18.1 52.4241C18.1 52.4252 18.1 52.4264 18.1 52.4276C18.1 52.4288 18.1 52.43 18.1 52.4312C18.1 52.4324 18.1 52.4336 18.1 52.4348C18.1 52.436 18.1 52.4372 18.1 52.4384C18.1 52.4396 18.1 52.4408 18.1 52.442C18.1 52.4432 18.1 52.4443 18.1 52.4455C18.1 52.4467 18.1 52.4479 18.1 52.4491C18.1 52.4503 18.1 52.4515 18.1 52.4527C18.1 52.4539 18.1 52.4551 18.1 52.4563C18.1 52.4575 18.1 52.4587 18.1 52.4599C18.1 52.4611 18.1 52.4623 18.1 52.4635C18.1 52.4646 18.1 52.4658 18.1 52.467C18.1 52.4682 18.1 52.4694 18.1 52.4706C18.1 52.4718 18.1 52.473 18.1 52.4742C18.1 52.4754 18.1 52.4766 18.1 52.4778C18.1 52.479 18.1 52.4802 18.1 52.4814C18.1 52.4826 18.1 52.4838 18.1 52.485C18.1 52.4862 18.1 52.4874 18.1 52.4886C18.1 52.4897 18.1 52.4909 18.1 52.4921C18.1 52.4933 18.1 52.4945 18.1 52.4957C18.1 52.4969 18.1 52.4981 18.1 52.4993C18.1 52.5005 18.1 52.5017 18.1 52.5029C18.1 52.5041 18.1 52.5053 18.1 52.5065C18.1 52.5077 18.1 52.5089 18.1 52.5101C18.1 52.5113 18.1 52.5125 18.1 52.5137C18.1 52.5149 18.1 52.5161 18.1 52.5173C18.1 52.5185 18.1 52.5197 18.1 52.5209C18.1 52.522 18.1 52.5232 18.1 52.5244C18.1 52.5256 18.1 52.5268 18.1 52.528C18.1 52.5292 18.1 52.5304 18.1 52.5316C18.1 52.5328 18.1 52.534 18.1 52.5352C18.1 52.5364 18.1 52.5376 18.1 52.5388C18.1 52.54 18.1 52.5412 18.1 52.5424C18.1 52.5436 18.1 52.5448 18.1 52.546C18.1 52.5472 18.1 52.5484 18.1 52.5496C18.1 52.5508 18.1 52.552 18.1 52.5532C18.1 52.5544 18.1 52.5556 18.1 52.5568C18.1 52.558 18.1 52.5592 18.1 52.5604C18.1 52.5616 18.1 52.5628 18.1 52.564C18.1 52.5652 18.1 52.5664 18.1 52.5676C18.1 52.5688 18.1 52.57 18.1 52.5712C18.1 52.5724 18.1 52.5736 18.1 52.5748C18.1 52.576 18.1 52.5772 18.1 52.5784C18.1 52.5795 18.1 52.5807 18.1 52.5819C18.1 52.5831 18.1 52.5843 18.1 52.5855C18.1 52.5867 18.1 52.5879 18.1 52.5891C18.1 52.5903 18.1 52.5915 18.1 52.5927C18.1 52.5939 18.1 52.5951 18.1 52.5963C18.1 52.5975 18.1 52.5987 18.1 52.5999C18.1 52.6011 18.1 52.6023 18.1 52.6035C18.1 52.6047 18.1 52.6059 18.1 52.6071C18.1 52.6083 18.1 52.6095 18.1 52.6107C18.1 52.6119 18.1 52.6131 18.1 52.6143C18.1 52.6155 18.1 52.6167 18.1 52.6179C18.1 52.6191 18.1 52.6203 18.1 52.6215C18.1 52.6227 18.1 52.624 18.1 52.6252C18.1 52.6264 18.1 52.6276 18.1 52.6288C18.1 52.63 18.1 52.6312 18.1 52.6324C18.1 52.6336 18.1 52.6348 18.1 52.636C18.1 52.6372 18.1 52.6384 18.1 52.6396C18.1 52.6408 18.1 52.642 18.1 52.6432C18.1 52.6444 18.1 52.6456 18.1 52.6468C18.1 52.648 18.1 52.6492 18.1 52.6504C18.1 52.6516 18.1 52.6528 18.1 52.654C18.1 52.6552 18.1 52.6564 18.1 52.6576C18.1 52.6588 18.1 52.66 18.1 52.6612C18.1 52.6624 18.1 52.6636 18.1 52.6648C18.1 52.666 18.1 52.6672 18.1 52.6684C18.1 52.6696 18.1 52.6708 18.1 52.672C18.1 52.6732 18.1 52.6744 18.1 52.6756C18.1 52.6768 18.1 52.678 18.1 52.6792C18.1 52.6804 18.1 52.6817 18.1 52.6829C18.1 52.6841 18.1 52.6853 18.1 52.6865C18.1 52.6877 18.1 52.6889 18.1 52.6901C18.1 52.6913 18.1 52.6925 18.1 52.6937C18.1 52.6949 18.1 52.6961 18.1 52.6973C18.1 52.6985 18.1 52.6997 18.1 52.7009C18.1 52.7021 18.1 52.7033 18.1 52.7045C18.1 52.7057 18.1 52.7069 18.1 52.7081C18.1 52.7093 18.1 52.7105 18.1 52.7117C18.1 52.713 18.1 52.7142 18.1 52.7154C18.1 52.7166 18.1 52.7178 18.1 52.719C18.1 52.7202 18.1 52.7214 18.1 52.7226C18.1 52.7238 18.1 52.725 18.1 52.7262C18.1 52.7274 18.1 52.7286 18.1 52.7298C18.1 52.731 18.1 52.7322 18.1 52.7334C18.1 52.7346 18.1 52.7359 18.1 52.7371C18.1 52.7383 18.1 52.7395 18.1 52.7407C18.1 52.7419 18.1 52.7431 18.1 52.7443C18.1 52.7455 18.1 52.7467 18.1 52.7479C18.1 52.7491 18.1 52.7503 18.1 52.7515C18.1 52.7527 18.1 52.7539 18.1 52.7551C18.1 52.7564 18.1 52.7576 18.1 52.7588C18.1 52.76 18.1 52.7612 18.1 52.7624C18.1 52.7636 18.1 52.7648 18.1 52.766C18.1 52.7672 18.1 52.7684 18.1 52.7696C18.1 52.7708 18.1 52.772 18.1 52.7733C18.1 52.7745 18.1 52.7757 18.1 52.7769C18.1 52.7781 18.1 52.7793 18.1 52.7805C18.1 52.7817 18.1 52.7829 18.1 52.7841C18.1 52.7853 18.1 52.7865 18.1 52.7877C18.1 52.7889 18.1 52.7902 18.1 52.7914C18.1 52.7926 18.1 52.7938 18.1 52.795C18.1 52.7962 18.1 52.7974 18.1 52.7986C18.1 52.7998 18.1 52.801 18.1 52.8022C18.1 52.8034 18.1 52.8047 18.1 52.8059C18.1 52.8071 18.1 52.8083 18.1 52.8095C18.1 52.8107 18.1 52.8119 18.1 52.8131C18.1 52.8143 18.1 52.8155 18.1 52.8167C18.1 52.818 18.1 52.8192 18.1 52.8204C18.1 52.8216 18.1 52.8228 18.1 52.824C18.1 52.8252 18.1 52.8264 18.1 52.8276C18.1 52.8288 18.1 52.8301 18.1 52.8313C18.1 52.8325 18.1 52.8337 18.1 52.8349C18.1 52.8361 18.1 52.8373 18.1 52.8385C18.1 52.8397 18.1 52.8409 18.1 52.8422C18.1 52.8434 18.1 52.8446 18.1 52.8458C18.1 52.847 18.1 52.8482 18.1 52.8494C18.1 52.8506 18.1 52.8518 18.1 52.8531C18.1 52.8543 18.1 52.8555 18.1 52.8567C18.1 52.8579 18.1 52.8591 18.1 52.8603C18.1 52.8615 18.1 52.8627 18.1 52.864C18.1 52.8652 18.1 52.8664 18.1 52.8676C18.1 52.8688 18.1 52.87 18.1 52.8712C18.1 52.8724 18.1 52.8736 18.1 52.8749C18.1 52.8761 18.1 52.8773 18.1 52.8785C18.1 52.8797 18.1 52.8809 18.1 52.8821C18.1 52.8833 18.1 52.8846 18.1 52.8858C18.1 52.887 18.1 52.8882 18.1 52.8894C18.1 52.8906 18.1 52.8918 18.1 52.893C18.1 52.8943 18.1 52.8955 18.1 52.8967C18.1 52.8979 18.1 52.8991 18.1 52.9003C18.1 52.9015 18.1 52.9027 18.1 52.904C18.1 52.9052 18.1 52.9064 18.1 52.9076C18.1 52.9088 18.1 52.91 18.1 52.9112C18.1 52.9125 18.1 52.9137 18.1 52.9149C18.1 52.9161 18.1 52.9173 18.1 52.9185C18.1 52.9197 18.1 52.921 18.1 52.9222C18.1 52.9234 18.1 52.9246 18.1 52.9258C18.1 52.927 18.1 52.9282 18.1 52.9295C18.1 52.9307 18.1 52.9319 18.1 52.9331C18.1 52.9343 18.1 52.9355 18.1 52.9367C18.1 52.938 18.1 52.9392 18.1 52.9404C18.1 52.9416 18.1 52.9428 18.1 52.944C18.1 52.9452 18.1 52.9465 18.1 52.9477C18.1 52.9489 18.1 52.9501 18.1 52.9513C18.1 52.9525 18.1 52.9538 18.1 52.955C18.1 52.9562 18.1 52.9574 18.1 52.9586C18.1 52.9598 18.1 52.9611 18.1 52.9623C18.1 52.9635 18.1 52.9647 18.1 52.9659C18.1 52.9671 18.1 52.9684 18.1 52.9696C18.1 52.9708 18.1 52.972 18.1 52.9732C18.1 52.9744 18.1 52.9757 18.1 52.9769C18.1 52.9781 18.1 52.9793 18.1 52.9805C18.1 52.9817 18.1 52.983 18.1 52.9842C18.1 52.9854 18.1 52.9866 18.1 52.9878C18.1 52.989 18.1 52.9903 18.1 52.9915C18.1 52.9927 18.1 52.9939 18.1 52.9951C18.1 52.9963 18.1 52.9976 18.1 52.9988C18.1 53 18.1 53.0012 18.1 53.0024C18.1 53.0037 18.1 53.0049 18.1 53.0061C18.1 53.0073 18.1 53.0085 18.1 53.0098C18.1 53.011 18.1 53.0122 18.1 53.0134C18.1 53.0146 18.1 53.0158 18.1 53.0171C18.1 53.0183 18.1 53.0195 18.1 53.0207C18.1 53.0219 18.1 53.0232 18.1 53.0244C18.1 53.0256 18.1 53.0268 18.1 53.028C18.1 53.0293 18.1 53.0305 18.1 53.0317C18.1 53.0329 18.1 53.0341 18.1 53.0354C18.1 53.0366 18.1 53.0378 18.1 53.039C18.1 53.0402 18.1 53.0415 18.1 53.0427C18.1 53.0439 18.1 53.0451 18.1 53.0463C18.1 53.0476 18.1 53.0488 18.1 53.05H20.1ZM20.1 51.225C20.1 51.2236 20.1 51.2222 20.1 51.2208C20.1 51.2193 20.1 51.2179 20.1 51.2165C20.1 51.2151 20.1 51.2137 20.1 51.2123C20.1 51.2108 20.1 51.2094 20.1 51.208C20.1 51.2066 20.1 51.2052 20.1 51.2038C20.1 51.2024 20.1 51.2009 20.1 51.1995C20.1 51.1981 20.1 51.1967 20.1 51.1953C20.1 51.1939 20.1 51.1924 20.1 51.191C20.1 51.1896 20.1 51.1882 20.1 51.1868C20.1 51.1854 20.1 51.184 20.1 51.1825C20.1 51.1811 20.1 51.1797 20.1 51.1783C20.1 51.1769 20.1 51.1755 20.1 51.1741C20.1 51.1726 20.1 51.1712 20.1 51.1698C20.1 51.1684 20.1 51.167 20.1 51.1656C20.1 51.1642 20.1 51.1628 20.1 51.1613C20.1 51.1599 20.1 51.1585 20.1 51.1571C20.1 51.1557 20.1 51.1543 20.1 51.1529C20.1 51.1514 20.1 51.15 20.1 51.1486C20.1 51.1472 20.1 51.1458 20.1 51.1444C20.1 51.143 20.1 51.1416 20.1 51.1401C20.1 51.1387 20.1 51.1373 20.1 51.1359C20.1 51.1345 20.1 51.1331 20.1 51.1317C20.1 51.1303 20.1 51.1289 20.1 51.1274C20.1 51.126 20.1 51.1246 20.1 51.1232C20.1 51.1218 20.1 51.1204 20.1 51.119C20.1 51.1176 20.1 51.1161 20.1 51.1147C20.1 51.1133 20.1 51.1119 20.1 51.1105C20.1 51.1091 20.1 51.1077 20.1 51.1063C20.1 51.1049 20.1 51.1034 20.1 51.102C20.1 51.1006 20.1 51.0992 20.1 51.0978C20.1 51.0964 20.1 51.095 20.1 51.0936C20.1 51.0922 20.1 51.0907 20.1 51.0893C20.1 51.0879 20.1 51.0865 20.1 51.0851C20.1 51.0837 20.1 51.0823 20.1 51.0809C20.1 51.0795 20.1 51.0781 20.1 51.0766C20.1 51.0752 20.1 51.0738 20.1 51.0724C20.1 51.071 20.1 51.0696 20.1 51.0682C20.1 51.0668 20.1 51.0654 20.1 51.064C20.1 51.0625 20.1 51.0611 20.1 51.0597C20.1 51.0583 20.1 51.0569 20.1 51.0555C20.1 51.0541 20.1 51.0527 20.1 51.0513C20.1 51.0499 20.1 51.0485 20.1 51.047C20.1 51.0456 20.1 51.0442 20.1 51.0428C20.1 51.0414 20.1 51.04 20.1 51.0386C20.1 51.0372 20.1 51.0358 20.1 51.0344C20.1 51.033 20.1 51.0315 20.1 51.0301C20.1 51.0287 20.1 51.0273 20.1 51.0259C20.1 51.0245 20.1 51.0231 20.1 51.0217C20.1 51.0203 20.1 51.0189 20.1 51.0175C20.1 51.0161 20.1 51.0147 20.1 51.0132C20.1 51.0118 20.1 51.0104 20.1 51.009C20.1 51.0076 20.1 51.0062 20.1 51.0048C20.1 51.0034 20.1 51.002 20.1 51.0006C20.1 50.9992 20.1 50.9978 20.1 50.9964C20.1 50.9949 20.1 50.9935 20.1 50.9921C20.1 50.9907 20.1 50.9893 20.1 50.9879C20.1 50.9865 20.1 50.9851 20.1 50.9837C20.1 50.9823 20.1 50.9809 20.1 50.9795C20.1 50.9781 20.1 50.9767 20.1 50.9752C20.1 50.9738 20.1 50.9724 20.1 50.971C20.1 50.9696 20.1 50.9682 20.1 50.9668C20.1 50.9654 20.1 50.964 20.1 50.9626C20.1 50.9612 20.1 50.9598 20.1 50.9584C20.1 50.957 20.1 50.9556 20.1 50.9542C20.1 50.9527 20.1 50.9513 20.1 50.9499C20.1 50.9485 20.1 50.9471 20.1 50.9457C20.1 50.9443 20.1 50.9429 20.1 50.9415C20.1 50.9401 20.1 50.9387 20.1 50.9373C20.1 50.9359 20.1 50.9345 20.1 50.9331C20.1 50.9317 20.1 50.9303 20.1 50.9288C20.1 50.9274 20.1 50.926 20.1 50.9246C20.1 50.9232 20.1 50.9218 20.1 50.9204C20.1 50.919 20.1 50.9176 20.1 50.9162C20.1 50.9148 20.1 50.9134 20.1 50.912C20.1 50.9106 20.1 50.9092 20.1 50.9078C20.1 50.9064 20.1 50.905 20.1 50.9036C20.1 50.9022 20.1 50.9007 20.1 50.8993C20.1 50.8979 20.1 50.8965 20.1 50.8951C20.1 50.8937 20.1 50.8923 20.1 50.8909C20.1 50.8895 20.1 50.8881 20.1 50.8867C20.1 50.8853 20.1 50.8839 20.1 50.8825C20.1 50.8811 20.1 50.8797 20.1 50.8783C20.1 50.8769 20.1 50.8755 20.1 50.8741C20.1 50.8727 20.1 50.8713 20.1 50.8699C20.1 50.8684 20.1 50.867 20.1 50.8656C20.1 50.8642 20.1 50.8628 20.1 50.8614C20.1 50.86 20.1 50.8586 20.1 50.8572C20.1 50.8558 20.1 50.8544 20.1 50.853C20.1 50.8516 20.1 50.8502 20.1 50.8488C20.1 50.8474 20.1 50.846 20.1 50.8446C20.1 50.8432 20.1 50.8418 20.1 50.8404C20.1 50.839 20.1 50.8376 20.1 50.8362C20.1 50.8348 20.1 50.8334 20.1 50.832C20.1 50.8306 20.1 50.8292 20.1 50.8277C20.1 50.8263 20.1 50.8249 20.1 50.8235C20.1 50.8221 20.1 50.8207 20.1 50.8193C20.1 50.8179 20.1 50.8165 20.1 50.8151C20.1 50.8137 20.1 50.8123 20.1 50.8109C20.1 50.8095 20.1 50.8081 20.1 50.8067C20.1 50.8053 20.1 50.8039 20.1 50.8025C20.1 50.8011 20.1 50.7997 20.1 50.7983C20.1 50.7969 20.1 50.7955 20.1 50.7941C20.1 50.7927 20.1 50.7913 20.1 50.7899C20.1 50.7885 20.1 50.7871 20.1 50.7857C20.1 50.7843 20.1 50.7829 20.1 50.7815C20.1 50.7801 20.1 50.7787 20.1 50.7773C20.1 50.7759 20.1 50.7745 20.1 50.7731C20.1 50.7716 20.1 50.7702 20.1 50.7688C20.1 50.7674 20.1 50.766 20.1 50.7646C20.1 50.7632 20.1 50.7618 20.1 50.7604C20.1 50.759 20.1 50.7576 20.1 50.7562C20.1 50.7548 20.1 50.7534 20.1 50.752C20.1 50.7506 20.1 50.7492 20.1 50.7478C20.1 50.7464 20.1 50.745 20.1 50.7436C20.1 50.7422 20.1 50.7408 20.1 50.7394C20.1 50.738 20.1 50.7366 20.1 50.7352C20.1 50.7338 20.1 50.7324 20.1 50.731C20.1 50.7296 20.1 50.7282 20.1 50.7268C20.1 50.7254 20.1 50.724 20.1 50.7226C20.1 50.7212 20.1 50.7198 20.1 50.7184C20.1 50.717 20.1 50.7156 20.1 50.7142C20.1 50.7128 20.1 50.7114 20.1 50.71C20.1 50.7086 20.1 50.7072 20.1 50.7058C20.1 50.7044 20.1 50.703 20.1 50.7016C20.1 50.7002 20.1 50.6988 20.1 50.6974C20.1 50.696 20.1 50.6946 20.1 50.6932C20.1 50.6918 20.1 50.6904 20.1 50.689C20.1 50.6876 20.1 50.6862 20.1 50.6848C20.1 50.6834 20.1 50.682 20.1 50.6806C20.1 50.6792 20.1 50.6778 20.1 50.6764C20.1 50.675 20.1 50.6736 20.1 50.6722C20.1 50.6708 20.1 50.6694 20.1 50.668C20.1 50.6666 20.1 50.6652 20.1 50.6638C20.1 50.6624 20.1 50.661 20.1 50.6596C20.1 50.6582 20.1 50.6568 20.1 50.6554C20.1 50.654 20.1 50.6526 20.1 50.6512C20.1 50.6498 20.1 50.6484 20.1 50.6469C20.1 50.6455 20.1 50.6441 20.1 50.6427C20.1 50.6413 20.1 50.6399 20.1 50.6385C20.1 50.6371 20.1 50.6357 20.1 50.6343C20.1 50.6329 20.1 50.6315 20.1 50.6301C20.1 50.6287 20.1 50.6273 20.1 50.6259C20.1 50.6245 20.1 50.6231 20.1 50.6217C20.1 50.6203 20.1 50.6189 20.1 50.6175C20.1 50.6161 20.1 50.6147 20.1 50.6133C20.1 50.6119 20.1 50.6105 20.1 50.6091C20.1 50.6077 20.1 50.6063 20.1 50.6049C20.1 50.6035 20.1 50.6021 20.1 50.6007C20.1 50.5993 20.1 50.5979 20.1 50.5965C20.1 50.5951 20.1 50.5937 20.1 50.5923C20.1 50.5909 20.1 50.5895 20.1 50.5881C20.1 50.5867 20.1 50.5853 20.1 50.5839C20.1 50.5825 20.1 50.5811 20.1 50.5797C20.1 50.5783 20.1 50.5769 20.1 50.5755C20.1 50.5741 20.1 50.5727 20.1 50.5713C20.1 50.5699 20.1 50.5685 20.1 50.5671C20.1 50.5657 20.1 50.5643 20.1 50.5629C20.1 50.5615 20.1 50.5601 20.1 50.5587C20.1 50.5573 20.1 50.5559 20.1 50.5545C20.1 50.5531 20.1 50.5517 20.1 50.5503C20.1 50.5489 20.1 50.5475 20.1 50.5461C20.1 50.5447 20.1 50.5433 20.1 50.5419C20.1 50.5406 20.1 50.5392 20.1 50.5378C20.1 50.5364 20.1 50.535 20.1 50.5336C20.1 50.5322 20.1 50.5308 20.1 50.5294C20.1 50.528 20.1 50.5266 20.1 50.5252C20.1 50.5238 20.1 50.5224 20.1 50.521C20.1 50.5196 20.1 50.5182 20.1 50.5168C20.1 50.5154 20.1 50.514 20.1 50.5126C20.1 50.5112 20.1 50.5098 20.1 50.5084C20.1 50.507 20.1 50.5056 20.1 50.5042C20.1 50.5028 20.1 50.5014 20.1 50.5C20.1 50.4986 20.1 50.4972 20.1 50.4958C20.1 50.4944 20.1 50.493 20.1 50.4916C20.1 50.4902 20.1 50.4888 20.1 50.4874C20.1 50.486 20.1 50.4846 20.1 50.4832C20.1 50.4818 20.1 50.4804 20.1 50.479C20.1 50.4776 20.1 50.4762 20.1 50.4748C20.1 50.4734 20.1 50.472 20.1 50.4706C20.1 50.4692 20.1 50.4678 20.1 50.4664C20.1 50.465 20.1 50.4636 20.1 50.4622C20.1 50.4608 20.1 50.4594 20.1 50.458C20.1 50.4566 20.1 50.4552 20.1 50.4538C20.1 50.4524 20.1 50.451 20.1 50.4496C20.1 50.4482 20.1 50.4468 20.1 50.4454C20.1 50.444 20.1 50.4426 20.1 50.4412C20.1 50.4398 20.1 50.4384 20.1 50.437C20.1 50.4356 20.1 50.4342 20.1 50.4328C20.1 50.4314 20.1 50.43 20.1 50.4286C20.1 50.4272 20.1 50.4258 20.1 50.4244C20.1 50.423 20.1 50.4216 20.1 50.4202C20.1 50.4188 20.1 50.4174 20.1 50.416C20.1 50.4146 20.1 50.4132 20.1 50.4118C20.1 50.4104 20.1 50.409 20.1 50.4076C20.1 50.4062 20.1 50.4048 20.1 50.4034C20.1 50.402 20.1 50.4006 20.1 50.3992C20.1 50.3978 20.1 50.3964 20.1 50.395C20.1 50.3936 20.1 50.3922 20.1 50.3908C20.1 50.3894 20.1 50.388 20.1 50.3866C20.1 50.3852 20.1 50.3838 20.1 50.3824C20.1 50.381 20.1 50.3796 20.1 50.3782C20.1 50.3768 20.1 50.3754 20.1 50.374C20.1 50.3726 20.1 50.3712 20.1 50.3698C20.1 50.3684 20.1 50.367 20.1 50.3656C20.1 50.3642 20.1 50.3628 20.1 50.3614C20.1 50.36 20.1 50.3586 20.1 50.3572C20.1 50.3558 20.1 50.3544 20.1 50.353C20.1 50.3516 20.1 50.3502 20.1 50.3488C20.1 50.3474 20.1 50.346 20.1 50.3446C20.1 50.3432 20.1 50.3418 20.1 50.3404C20.1 50.339 20.1 50.3376 20.1 50.3362C20.1 50.3347 20.1 50.3333 20.1 50.3319C20.1 50.3305 20.1 50.3291 20.1 50.3277C20.1 50.3263 20.1 50.3249 20.1 50.3235C20.1 50.3221 20.1 50.3207 20.1 50.3193C20.1 50.3179 20.1 50.3165 20.1 50.3151C20.1 50.3137 20.1 50.3123 20.1 50.3109C20.1 50.3095 20.1 50.3081 20.1 50.3067C20.1 50.3053 20.1 50.3039 20.1 50.3025C20.1 50.3011 20.1 50.2997 20.1 50.2983C20.1 50.2969 20.1 50.2955 20.1 50.2941C20.1 50.2927 20.1 50.2913 20.1 50.2899C20.1 50.2885 20.1 50.2871 20.1 50.2857C20.1 50.2843 20.1 50.2829 20.1 50.2815C20.1 50.2801 20.1 50.2787 20.1 50.2773C20.1 50.2759 20.1 50.2745 20.1 50.2731C20.1 50.2717 20.1 50.2703 20.1 50.2689C20.1 50.2675 20.1 50.2661 20.1 50.2647C20.1 50.2633 20.1 50.2619 20.1 50.2605C20.1 50.2591 20.1 50.2577 20.1 50.2563C20.1 50.2549 20.1 50.2535 20.1 50.2521C20.1 50.2507 20.1 50.2493 20.1 50.2479C20.1 50.2465 20.1 50.2451 20.1 50.2437C20.1 50.2423 20.1 50.2409 20.1 50.2395C20.1 50.2381 20.1 50.2367 20.1 50.2353C20.1 50.2339 20.1 50.2325 20.1 50.2311C20.1 50.2296 20.1 50.2282 20.1 50.2268C20.1 50.2254 20.1 50.224 20.1 50.2226C20.1 50.2212 20.1 50.2198 20.1 50.2184C20.1 50.217 20.1 50.2156 20.1 50.2142C20.1 50.2128 20.1 50.2114 20.1 50.21C20.1 50.2086 20.1 50.2072 20.1 50.2058C20.1 50.2044 20.1 50.203 20.1 50.2016C20.1 50.2002 20.1 50.1988 20.1 50.1974C20.1 50.196 20.1 50.1946 20.1 50.1932C20.1 50.1918 20.1 50.1904 20.1 50.189C20.1 50.1876 20.1 50.1862 20.1 50.1848C20.1 50.1834 20.1 50.182 20.1 50.1806C20.1 50.1792 20.1 50.1778 20.1 50.1763C20.1 50.1749 20.1 50.1735 20.1 50.1721C20.1 50.1707 20.1 50.1693 20.1 50.1679C20.1 50.1665 20.1 50.1651 20.1 50.1637C20.1 50.1623 20.1 50.1609 20.1 50.1595C20.1 50.1581 20.1 50.1567 20.1 50.1553C20.1 50.1539 20.1 50.1525 20.1 50.1511C20.1 50.1497 20.1 50.1483 20.1 50.1469C20.1 50.1455 20.1 50.1441 20.1 50.1427C20.1 50.1413 20.1 50.1399 20.1 50.1385C20.1 50.137 20.1 50.1356 20.1 50.1342C20.1 50.1328 20.1 50.1314 20.1 50.13C20.1 50.1286 20.1 50.1272 20.1 50.1258C20.1 50.1244 20.1 50.123 20.1 50.1216C20.1 50.1202 20.1 50.1188 20.1 50.1174C20.1 50.116 20.1 50.1146 20.1 50.1132C20.1 50.1118 20.1 50.1104 20.1 50.109C20.1 50.1076 20.1 50.1061 20.1 50.1047C20.1 50.1033 20.1 50.1019 20.1 50.1005C20.1 50.0991 20.1 50.0977 20.1 50.0963C20.1 50.0949 20.1 50.0935 20.1 50.0921C20.1 50.0907 20.1 50.0893 20.1 50.0879C20.1 50.0865 20.1 50.0851 20.1 50.0837C20.1 50.0823 20.1 50.0809 20.1 50.0795C20.1 50.078 20.1 50.0766 20.1 50.0752C20.1 50.0738 20.1 50.0724 20.1 50.071C20.1 50.0696 20.1 50.0682 20.1 50.0668C20.1 50.0654 20.1 50.064 20.1 50.0626C20.1 50.0612 20.1 50.0598 20.1 50.0584C20.1 50.057 20.1 50.0556 20.1 50.0541C20.1 50.0527 20.1 50.0513 20.1 50.0499C20.1 50.0485 20.1 50.0471 20.1 50.0457C20.1 50.0443 20.1 50.0429 20.1 50.0415C20.1 50.0401 20.1 50.0387 20.1 50.0373C20.1 50.0359 20.1 50.0345 20.1 50.0331C20.1 50.0316 20.1 50.0302 20.1 50.0288C20.1 50.0274 20.1 50.026 20.1 50.0246C20.1 50.0232 20.1 50.0218 20.1 50.0204C20.1 50.019 20.1 50.0176 20.1 50.0162C20.1 50.0148 20.1 50.0134 20.1 50.0119C20.1 50.0105 20.1 50.0091 20.1 50.0077C20.1 50.0063 20.1 50.0049 20.1 50.0035C20.1 50.0021 20.1 50.0007 20.1 49.9993C20.1 49.9979 20.1 49.9965 20.1 49.9951C20.1 49.9936 20.1 49.9922 20.1 49.9908C20.1 49.9894 20.1 49.988 20.1 49.9866C20.1 49.9852 20.1 49.9838 20.1 49.9824C20.1 49.981 20.1 49.9796 20.1 49.9782C20.1 49.9767 20.1 49.9753 20.1 49.9739C20.1 49.9725 20.1 49.9711 20.1 49.9697C20.1 49.9683 20.1 49.9669 20.1 49.9655C20.1 49.9641 20.1 49.9627 20.1 49.9612C20.1 49.9598 20.1 49.9584 20.1 49.957C20.1 49.9556 20.1 49.9542 20.1 49.9528C20.1 49.9514 20.1 49.95 20.1 49.9486C20.1 49.9472 20.1 49.9457 20.1 49.9443C20.1 49.9429 20.1 49.9415 20.1 49.9401C20.1 49.9387 20.1 49.9373 20.1 49.9359C20.1 49.9345 20.1 49.9331 20.1 49.9316C20.1 49.9302 20.1 49.9288 20.1 49.9274C20.1 49.926 20.1 49.9246 20.1 49.9232C20.1 49.9218 20.1 49.9204 20.1 49.919C20.1 49.9175 20.1 49.9161 20.1 49.9147C20.1 49.9133 20.1 49.9119 20.1 49.9105C20.1 49.9091 20.1 49.9077 20.1 49.9063C20.1 49.9048 20.1 49.9034 20.1 49.902C20.1 49.9006 20.1 49.8992 20.1 49.8978C20.1 49.8964 20.1 49.895 20.1 49.8936C20.1 49.8921 20.1 49.8907 20.1 49.8893C20.1 49.8879 20.1 49.8865 20.1 49.8851C20.1 49.8837 20.1 49.8823 20.1 49.8808C20.1 49.8794 20.1 49.878 20.1 49.8766C20.1 49.8752 20.1 49.8738 20.1 49.8724C20.1 49.871 20.1 49.8695 20.1 49.8681C20.1 49.8667 20.1 49.8653 20.1 49.8639C20.1 49.8625 20.1 49.8611 20.1 49.8597C20.1 49.8582 20.1 49.8568 20.1 49.8554C20.1 49.854 20.1 49.8526 20.1 49.8512C20.1 49.8498 20.1 49.8484 20.1 49.8469C20.1 49.8455 20.1 49.8441 20.1 49.8427C20.1 49.8413 20.1 49.8399 20.1 49.8385C20.1 49.837 20.1 49.8356 20.1 49.8342C20.1 49.8328 20.1 49.8314 20.1 49.83C20.1 49.8286 20.1 49.8271 20.1 49.8257C20.1 49.8243 20.1 49.8229 20.1 49.8215C20.1 49.8201 20.1 49.8187 20.1 49.8172C20.1 49.8158 20.1 49.8144 20.1 49.813C20.1 49.8116 20.1 49.8102 20.1 49.8088C20.1 49.8073 20.1 49.8059 20.1 49.8045C20.1 49.8031 20.1 49.8017 20.1 49.8003C20.1 49.7989 20.1 49.7974 20.1 49.796C20.1 49.7946 20.1 49.7932 20.1 49.7918C20.1 49.7904 20.1 49.7889 20.1 49.7875C20.1 49.7861 20.1 49.7847 20.1 49.7833C20.1 49.7819 20.1 49.7804 20.1 49.779C20.1 49.7776 20.1 49.7762 20.1 49.7748C20.1 49.7734 20.1 49.7719 20.1 49.7705C20.1 49.7691 20.1 49.7677 20.1 49.7663C20.1 49.7649 20.1 49.7634 20.1 49.762C20.1 49.7606 20.1 49.7592 20.1 49.7578C20.1 49.7564 20.1 49.7549 20.1 49.7535C20.1 49.7521 20.1 49.7507 20.1 49.7493C20.1 49.7479 20.1 49.7464 20.1 49.745C20.1 49.7436 20.1 49.7422 20.1 49.7408C20.1 49.7393 20.1 49.7379 20.1 49.7365C20.1 49.7351 20.1 49.7337 20.1 49.7323C20.1 49.7308 20.1 49.7294 20.1 49.728C20.1 49.7266 20.1 49.7252 20.1 49.7237C20.1 49.7223 20.1 49.7209 20.1 49.7195C20.1 49.7181 20.1 49.7166 20.1 49.7152C20.1 49.7138 20.1 49.7124 20.1 49.711C20.1 49.7096 20.1 49.7081 20.1 49.7067C20.1 49.7053 20.1 49.7039 20.1 49.7025C20.1 49.701 20.1 49.6996 20.1 49.6982C20.1 49.6968 20.1 49.6954 20.1 49.6939C20.1 49.6925 20.1 49.6911 20.1 49.6897C20.1 49.6882 20.1 49.6868 20.1 49.6854C20.1 49.684 20.1 49.6826 20.1 49.6811C20.1 49.6797 20.1 49.6783 20.1 49.6769C20.1 49.6755 20.1 49.674 20.1 49.6726C20.1 49.6712 20.1 49.6698 20.1 49.6684C20.1 49.6669 20.1 49.6655 20.1 49.6641C20.1 49.6627 20.1 49.6612 20.1 49.6598C20.1 49.6584 20.1 49.657 20.1 49.6556C20.1 49.6541 20.1 49.6527 20.1 49.6513C20.1 49.6499 20.1 49.6484 20.1 49.647C20.1 49.6456 20.1 49.6442 20.1 49.6427C20.1 49.6413 20.1 49.6399 20.1 49.6385C20.1 49.6371 20.1 49.6356 20.1 49.6342C20.1 49.6328 20.1 49.6314 20.1 49.6299C20.1 49.6285 20.1 49.6271 20.1 49.6257C20.1 49.6242 20.1 49.6228 20.1 49.6214C20.1 49.62 20.1 49.6185 20.1 49.6171C20.1 49.6157 20.1 49.6143 20.1 49.6128C20.1 49.6114 20.1 49.61 20.1 49.6086C20.1 49.6071 20.1 49.6057 20.1 49.6043C20.1 49.6029 20.1 49.6014 20.1 49.6C20.1 49.5986 20.1 49.5972 20.1 49.5957C20.1 49.5943 20.1 49.5929 20.1 49.5915C20.1 49.59 20.1 49.5886 20.1 49.5872C20.1 49.5858 20.1 49.5843 20.1 49.5829C20.1 49.5815 20.1 49.5801 20.1 49.5786C20.1 49.5772 20.1 49.5758 20.1 49.5744C20.1 49.5729 20.1 49.5715 20.1 49.5701C20.1 49.5686 20.1 49.5672 20.1 49.5658C20.1 49.5644 20.1 49.5629 20.1 49.5615C20.1 49.5601 20.1 49.5586 20.1 49.5572C20.1 49.5558 20.1 49.5544 20.1 49.5529C20.1 49.5515 20.1 49.5501 20.1 49.5487C20.1 49.5472 20.1 49.5458 20.1 49.5444C20.1 49.5429 20.1 49.5415 20.1 49.5401C20.1 49.5387 20.1 49.5372 20.1 49.5358C20.1 49.5344 20.1 49.5329 20.1 49.5315C20.1 49.5301 20.1 49.5286 20.1 49.5272C20.1 49.5258 20.1 49.5244 20.1 49.5229C20.1 49.5215 20.1 49.5201 20.1 49.5186C20.1 49.5172 20.1 49.5158 20.1 49.5143C20.1 49.5129 20.1 49.5115 20.1 49.5101C20.1 49.5086 20.1 49.5072 20.1 49.5058C20.1 49.5043 20.1 49.5029 20.1 49.5015C20.1 49.5 20.1 49.4986 20.1 49.4972C20.1 49.4957 20.1 49.4943 20.1 49.4929C20.1 49.4914 20.1 49.49 20.1 49.4886C20.1 49.4872 20.1 49.4857 20.1 49.4843C20.1 49.4829 20.1 49.4814 20.1 49.48C20.1 49.4786 20.1 49.4771 20.1 49.4757C20.1 49.4743 20.1 49.4728 20.1 49.4714C20.1 49.47 20.1 49.4685 20.1 49.4671C20.1 49.4657 20.1 49.4642 20.1 49.4628C20.1 49.4614 20.1 49.4599 20.1 49.4585C20.1 49.4571 20.1 49.4556 20.1 49.4542C20.1 49.4528 20.1 49.4513 20.1 49.4499C20.1 49.4485 20.1 49.447 20.1 49.4456C20.1 49.4442 20.1 49.4427 20.1 49.4413C20.1 49.4398 20.1 49.4384 20.1 49.437C20.1 49.4355 20.1 49.4341 20.1 49.4327C20.1 49.4312 20.1 49.4298 20.1 49.4284C20.1 49.4269 20.1 49.4255 20.1 49.4241C20.1 49.4226 20.1 49.4212 20.1 49.4197C20.1 49.4183 20.1 49.4169 20.1 49.4154C20.1 49.414 20.1 49.4126 20.1 49.4111C20.1 49.4097 20.1 49.4082 20.1 49.4068C20.1 49.4054 20.1 49.4039 20.1 49.4025C20.1 49.4011 20.1 49.3996 20.1 49.3982C20.1 49.3967 20.1 49.3953 20.1 49.3939C20.1 49.3924 20.1 49.391 20.1 49.3896C20.1 49.3881 20.1 49.3867 20.1 49.3852C20.1 49.3838 20.1 49.3824 20.1 49.3809C20.1 49.3795 20.1 49.378 20.1 49.3766C20.1 49.3752 20.1 49.3737 20.1 49.3723C20.1 49.3708 20.1 49.3694 20.1 49.368C20.1 49.3665 20.1 49.3651 20.1 49.3636C20.1 49.3622 20.1 49.3608 20.1 49.3593C20.1 49.3579 20.1 49.3564 20.1 49.355C20.1 49.3536 20.1 49.3521 20.1 49.3507C20.1 49.3492 20.1 49.3478 20.1 49.3464C20.1 49.3449 20.1 49.3435 20.1 49.342C20.1 49.3406 20.1 49.3391 20.1 49.3377C20.1 49.3363 20.1 49.3348 20.1 49.3334C20.1 49.3319 20.1 49.3305 20.1 49.3291C20.1 49.3276 20.1 49.3262 20.1 49.3247C20.1 49.3233 20.1 49.3218 20.1 49.3204C20.1 49.319 20.1 49.3175 20.1 49.3161C20.1 49.3146 20.1 49.3132 20.1 49.3117C20.1 49.3103 20.1 49.3088 20.1 49.3074C20.1 49.306 20.1 49.3045 20.1 49.3031C20.1 49.3016 20.1 49.3002 20.1 49.2987C20.1 49.2973 20.1 49.2958 20.1 49.2944C20.1 49.293 20.1 49.2915 20.1 49.2901C20.1 49.2886 20.1 49.2872 20.1 49.2857C20.1 49.2843 20.1 49.2828 20.1 49.2814C20.1 49.2799 20.1 49.2785 20.1 49.277C20.1 49.2756 20.1 49.2742 20.1 49.2727C20.1 49.2713 20.1 49.2698 20.1 49.2684C20.1 49.2669 20.1 49.2655 20.1 49.264C20.1 49.2626 20.1 49.2611 20.1 49.2597C20.1 49.2582 20.1 49.2568 20.1 49.2553C20.1 49.2539 20.1 49.2524 20.1 49.251C20.1 49.2495 20.1 49.2481 20.1 49.2466C20.1 49.2452 20.1 49.2437 20.1 49.2423C20.1 49.2409 20.1 49.2394 20.1 49.238C20.1 49.2365 20.1 49.2351 20.1 49.2336C20.1 49.2322 20.1 49.2307 20.1 49.2293C20.1 49.2278 20.1 49.2264 20.1 49.2249C20.1 49.2235 20.1 49.222 20.1 49.2205C20.1 49.2191 20.1 49.2176 20.1 49.2162C20.1 49.2147 20.1 49.2133 20.1 49.2118C20.1 49.2104 20.1 49.2089 20.1 49.2075C20.1 49.206 20.1 49.2046 20.1 49.2031C20.1 49.2017 20.1 49.2002 20.1 49.1988C20.1 49.1973 20.1 49.1959 20.1 49.1944C20.1 49.193 20.1 49.1915 20.1 49.1901C20.1 49.1886 20.1 49.1872 20.1 49.1857C20.1 49.1842 20.1 49.1828 20.1 49.1813C20.1 49.1799 20.1 49.1784 20.1 49.177C20.1 49.1755 20.1 49.1741 20.1 49.1726C20.1 49.1712 20.1 49.1697 20.1 49.1682C20.1 49.1668 20.1 49.1653 20.1 49.1639C20.1 49.1624 20.1 49.161 20.1 49.1595C20.1 49.1581 20.1 49.1566 20.1 49.1551C20.1 49.1537 20.1 49.1522 20.1 49.1508C20.1 49.1493 20.1 49.1479 20.1 49.1464C20.1 49.145 20.1 49.1435 20.1 49.142C20.1 49.1406 20.1 49.1391 20.1 49.1377C20.1 49.1362 20.1 49.1348 20.1 49.1333C20.1 49.1318 20.1 49.1304 20.1 49.1289C20.1 49.1275 20.1 49.126 20.1 49.1245C20.1 49.1231 20.1 49.1216 20.1 49.1202C20.1 49.1187 20.1 49.1173 20.1 49.1158C20.1 49.1143 20.1 49.1129 20.1 49.1114C20.1 49.11 20.1 49.1085 20.1 49.107C20.1 49.1056 20.1 49.1041 20.1 49.1027C20.1 49.1012 20.1 49.0997 20.1 49.0983C20.1 49.0968 20.1 49.0954 20.1 49.0939C20.1 49.0924 20.1 49.091 20.1 49.0895C20.1 49.088 20.1 49.0866 20.1 49.0851C20.1 49.0837 20.1 49.0822 20.1 49.0807C20.1 49.0793 20.1 49.0778 20.1 49.0763C20.1 49.0749 20.1 49.0734 20.1 49.072C20.1 49.0705 20.1 49.069 20.1 49.0676C20.1 49.0661 20.1 49.0646 20.1 49.0632C20.1 49.0617 20.1 49.0603 20.1 49.0588C20.1 49.0573 20.1 49.0559 20.1 49.0544C20.1 49.0529 20.1 49.0515 20.1 49.05H18.1C18.1 49.0515 18.1 49.0529 18.1 49.0544C18.1 49.0559 18.1 49.0573 18.1 49.0588C18.1 49.0603 18.1 49.0617 18.1 49.0632C18.1 49.0646 18.1 49.0661 18.1 49.0676C18.1 49.069 18.1 49.0705 18.1 49.072C18.1 49.0734 18.1 49.0749 18.1 49.0763C18.1 49.0778 18.1 49.0793 18.1 49.0807C18.1 49.0822 18.1 49.0837 18.1 49.0851C18.1 49.0866 18.1 49.088 18.1 49.0895C18.1 49.091 18.1 49.0924 18.1 49.0939C18.1 49.0954 18.1 49.0968 18.1 49.0983C18.1 49.0997 18.1 49.1012 18.1 49.1027C18.1 49.1041 18.1 49.1056 18.1 49.107C18.1 49.1085 18.1 49.11 18.1 49.1114C18.1 49.1129 18.1 49.1143 18.1 49.1158C18.1 49.1173 18.1 49.1187 18.1 49.1202C18.1 49.1216 18.1 49.1231 18.1 49.1245C18.1 49.126 18.1 49.1275 18.1 49.1289C18.1 49.1304 18.1 49.1318 18.1 49.1333C18.1 49.1348 18.1 49.1362 18.1 49.1377C18.1 49.1391 18.1 49.1406 18.1 49.142C18.1 49.1435 18.1 49.145 18.1 49.1464C18.1 49.1479 18.1 49.1493 18.1 49.1508C18.1 49.1522 18.1 49.1537 18.1 49.1551C18.1 49.1566 18.1 49.1581 18.1 49.1595C18.1 49.161 18.1 49.1624 18.1 49.1639C18.1 49.1653 18.1 49.1668 18.1 49.1682C18.1 49.1697 18.1 49.1712 18.1 49.1726C18.1 49.1741 18.1 49.1755 18.1 49.177C18.1 49.1784 18.1 49.1799 18.1 49.1813C18.1 49.1828 18.1 49.1842 18.1 49.1857C18.1 49.1872 18.1 49.1886 18.1 49.1901C18.1 49.1915 18.1 49.193 18.1 49.1944C18.1 49.1959 18.1 49.1973 18.1 49.1988C18.1 49.2002 18.1 49.2017 18.1 49.2031C18.1 49.2046 18.1 49.206 18.1 49.2075C18.1 49.2089 18.1 49.2104 18.1 49.2118C18.1 49.2133 18.1 49.2147 18.1 49.2162C18.1 49.2176 18.1 49.2191 18.1 49.2205C18.1 49.222 18.1 49.2235 18.1 49.2249C18.1 49.2264 18.1 49.2278 18.1 49.2293C18.1 49.2307 18.1 49.2322 18.1 49.2336C18.1 49.2351 18.1 49.2365 18.1 49.238C18.1 49.2394 18.1 49.2409 18.1 49.2423C18.1 49.2437 18.1 49.2452 18.1 49.2466C18.1 49.2481 18.1 49.2495 18.1 49.251C18.1 49.2524 18.1 49.2539 18.1 49.2553C18.1 49.2568 18.1 49.2582 18.1 49.2597C18.1 49.2611 18.1 49.2626 18.1 49.264C18.1 49.2655 18.1 49.2669 18.1 49.2684C18.1 49.2698 18.1 49.2713 18.1 49.2727C18.1 49.2742 18.1 49.2756 18.1 49.277C18.1 49.2785 18.1 49.2799 18.1 49.2814C18.1 49.2828 18.1 49.2843 18.1 49.2857C18.1 49.2872 18.1 49.2886 18.1 49.2901C18.1 49.2915 18.1 49.293 18.1 49.2944C18.1 49.2958 18.1 49.2973 18.1 49.2987C18.1 49.3002 18.1 49.3016 18.1 49.3031C18.1 49.3045 18.1 49.306 18.1 49.3074C18.1 49.3088 18.1 49.3103 18.1 49.3117C18.1 49.3132 18.1 49.3146 18.1 49.3161C18.1 49.3175 18.1 49.319 18.1 49.3204C18.1 49.3218 18.1 49.3233 18.1 49.3247C18.1 49.3262 18.1 49.3276 18.1 49.3291C18.1 49.3305 18.1 49.3319 18.1 49.3334C18.1 49.3348 18.1 49.3363 18.1 49.3377C18.1 49.3391 18.1 49.3406 18.1 49.342C18.1 49.3435 18.1 49.3449 18.1 49.3464C18.1 49.3478 18.1 49.3492 18.1 49.3507C18.1 49.3521 18.1 49.3536 18.1 49.355C18.1 49.3564 18.1 49.3579 18.1 49.3593C18.1 49.3608 18.1 49.3622 18.1 49.3636C18.1 49.3651 18.1 49.3665 18.1 49.368C18.1 49.3694 18.1 49.3708 18.1 49.3723C18.1 49.3737 18.1 49.3752 18.1 49.3766C18.1 49.378 18.1 49.3795 18.1 49.3809C18.1 49.3824 18.1 49.3838 18.1 49.3852C18.1 49.3867 18.1 49.3881 18.1 49.3896C18.1 49.391 18.1 49.3924 18.1 49.3939C18.1 49.3953 18.1 49.3967 18.1 49.3982C18.1 49.3996 18.1 49.4011 18.1 49.4025C18.1 49.4039 18.1 49.4054 18.1 49.4068C18.1 49.4082 18.1 49.4097 18.1 49.4111C18.1 49.4126 18.1 49.414 18.1 49.4154C18.1 49.4169 18.1 49.4183 18.1 49.4197C18.1 49.4212 18.1 49.4226 18.1 49.4241C18.1 49.4255 18.1 49.4269 18.1 49.4284C18.1 49.4298 18.1 49.4312 18.1 49.4327C18.1 49.4341 18.1 49.4355 18.1 49.437C18.1 49.4384 18.1 49.4398 18.1 49.4413C18.1 49.4427 18.1 49.4442 18.1 49.4456C18.1 49.447 18.1 49.4485 18.1 49.4499C18.1 49.4513 18.1 49.4528 18.1 49.4542C18.1 49.4556 18.1 49.4571 18.1 49.4585C18.1 49.4599 18.1 49.4614 18.1 49.4628C18.1 49.4642 18.1 49.4657 18.1 49.4671C18.1 49.4685 18.1 49.47 18.1 49.4714C18.1 49.4728 18.1 49.4743 18.1 49.4757C18.1 49.4771 18.1 49.4786 18.1 49.48C18.1 49.4814 18.1 49.4829 18.1 49.4843C18.1 49.4857 18.1 49.4872 18.1 49.4886C18.1 49.49 18.1 49.4914 18.1 49.4929C18.1 49.4943 18.1 49.4957 18.1 49.4972C18.1 49.4986 18.1 49.5 18.1 49.5015C18.1 49.5029 18.1 49.5043 18.1 49.5058C18.1 49.5072 18.1 49.5086 18.1 49.5101C18.1 49.5115 18.1 49.5129 18.1 49.5143C18.1 49.5158 18.1 49.5172 18.1 49.5186C18.1 49.5201 18.1 49.5215 18.1 49.5229C18.1 49.5244 18.1 49.5258 18.1 49.5272C18.1 49.5286 18.1 49.5301 18.1 49.5315C18.1 49.5329 18.1 49.5344 18.1 49.5358C18.1 49.5372 18.1 49.5387 18.1 49.5401C18.1 49.5415 18.1 49.5429 18.1 49.5444C18.1 49.5458 18.1 49.5472 18.1 49.5487C18.1 49.5501 18.1 49.5515 18.1 49.5529C18.1 49.5544 18.1 49.5558 18.1 49.5572C18.1 49.5586 18.1 49.5601 18.1 49.5615C18.1 49.5629 18.1 49.5644 18.1 49.5658C18.1 49.5672 18.1 49.5686 18.1 49.5701C18.1 49.5715 18.1 49.5729 18.1 49.5744C18.1 49.5758 18.1 49.5772 18.1 49.5786C18.1 49.5801 18.1 49.5815 18.1 49.5829C18.1 49.5843 18.1 49.5858 18.1 49.5872C18.1 49.5886 18.1 49.59 18.1 49.5915C18.1 49.5929 18.1 49.5943 18.1 49.5957C18.1 49.5972 18.1 49.5986 18.1 49.6C18.1 49.6014 18.1 49.6029 18.1 49.6043C18.1 49.6057 18.1 49.6071 18.1 49.6086C18.1 49.61 18.1 49.6114 18.1 49.6128C18.1 49.6143 18.1 49.6157 18.1 49.6171C18.1 49.6185 18.1 49.62 18.1 49.6214C18.1 49.6228 18.1 49.6242 18.1 49.6257C18.1 49.6271 18.1 49.6285 18.1 49.6299C18.1 49.6314 18.1 49.6328 18.1 49.6342C18.1 49.6356 18.1 49.6371 18.1 49.6385C18.1 49.6399 18.1 49.6413 18.1 49.6427C18.1 49.6442 18.1 49.6456 18.1 49.647C18.1 49.6484 18.1 49.6499 18.1 49.6513C18.1 49.6527 18.1 49.6541 18.1 49.6556C18.1 49.657 18.1 49.6584 18.1 49.6598C18.1 49.6612 18.1 49.6627 18.1 49.6641C18.1 49.6655 18.1 49.6669 18.1 49.6684C18.1 49.6698 18.1 49.6712 18.1 49.6726C18.1 49.674 18.1 49.6755 18.1 49.6769C18.1 49.6783 18.1 49.6797 18.1 49.6811C18.1 49.6826 18.1 49.684 18.1 49.6854C18.1 49.6868 18.1 49.6882 18.1 49.6897C18.1 49.6911 18.1 49.6925 18.1 49.6939C18.1 49.6954 18.1 49.6968 18.1 49.6982C18.1 49.6996 18.1 49.701 18.1 49.7025C18.1 49.7039 18.1 49.7053 18.1 49.7067C18.1 49.7081 18.1 49.7096 18.1 49.711C18.1 49.7124 18.1 49.7138 18.1 49.7152C18.1 49.7166 18.1 49.7181 18.1 49.7195C18.1 49.7209 18.1 49.7223 18.1 49.7237C18.1 49.7252 18.1 49.7266 18.1 49.728C18.1 49.7294 18.1 49.7308 18.1 49.7323C18.1 49.7337 18.1 49.7351 18.1 49.7365C18.1 49.7379 18.1 49.7393 18.1 49.7408C18.1 49.7422 18.1 49.7436 18.1 49.745C18.1 49.7464 18.1 49.7479 18.1 49.7493C18.1 49.7507 18.1 49.7521 18.1 49.7535C18.1 49.7549 18.1 49.7564 18.1 49.7578C18.1 49.7592 18.1 49.7606 18.1 49.762C18.1 49.7634 18.1 49.7649 18.1 49.7663C18.1 49.7677 18.1 49.7691 18.1 49.7705C18.1 49.7719 18.1 49.7734 18.1 49.7748C18.1 49.7762 18.1 49.7776 18.1 49.779C18.1 49.7804 18.1 49.7819 18.1 49.7833C18.1 49.7847 18.1 49.7861 18.1 49.7875C18.1 49.7889 18.1 49.7904 18.1 49.7918C18.1 49.7932 18.1 49.7946 18.1 49.796C18.1 49.7974 18.1 49.7989 18.1 49.8003C18.1 49.8017 18.1 49.8031 18.1 49.8045C18.1 49.8059 18.1 49.8073 18.1 49.8088C18.1 49.8102 18.1 49.8116 18.1 49.813C18.1 49.8144 18.1 49.8158 18.1 49.8172C18.1 49.8187 18.1 49.8201 18.1 49.8215C18.1 49.8229 18.1 49.8243 18.1 49.8257C18.1 49.8271 18.1 49.8286 18.1 49.83C18.1 49.8314 18.1 49.8328 18.1 49.8342C18.1 49.8356 18.1 49.837 18.1 49.8385C18.1 49.8399 18.1 49.8413 18.1 49.8427C18.1 49.8441 18.1 49.8455 18.1 49.8469C18.1 49.8484 18.1 49.8498 18.1 49.8512C18.1 49.8526 18.1 49.854 18.1 49.8554C18.1 49.8568 18.1 49.8582 18.1 49.8597C18.1 49.8611 18.1 49.8625 18.1 49.8639C18.1 49.8653 18.1 49.8667 18.1 49.8681C18.1 49.8695 18.1 49.871 18.1 49.8724C18.1 49.8738 18.1 49.8752 18.1 49.8766C18.1 49.878 18.1 49.8794 18.1 49.8808C18.1 49.8823 18.1 49.8837 18.1 49.8851C18.1 49.8865 18.1 49.8879 18.1 49.8893C18.1 49.8907 18.1 49.8921 18.1 49.8936C18.1 49.895 18.1 49.8964 18.1 49.8978C18.1 49.8992 18.1 49.9006 18.1 49.902C18.1 49.9034 18.1 49.9048 18.1 49.9063C18.1 49.9077 18.1 49.9091 18.1 49.9105C18.1 49.9119 18.1 49.9133 18.1 49.9147C18.1 49.9161 18.1 49.9175 18.1 49.919C18.1 49.9204 18.1 49.9218 18.1 49.9232C18.1 49.9246 18.1 49.926 18.1 49.9274C18.1 49.9288 18.1 49.9302 18.1 49.9316C18.1 49.9331 18.1 49.9345 18.1 49.9359C18.1 49.9373 18.1 49.9387 18.1 49.9401C18.1 49.9415 18.1 49.9429 18.1 49.9443C18.1 49.9457 18.1 49.9472 18.1 49.9486C18.1 49.95 18.1 49.9514 18.1 49.9528C18.1 49.9542 18.1 49.9556 18.1 49.957C18.1 49.9584 18.1 49.9598 18.1 49.9612C18.1 49.9627 18.1 49.9641 18.1 49.9655C18.1 49.9669 18.1 49.9683 18.1 49.9697C18.1 49.9711 18.1 49.9725 18.1 49.9739C18.1 49.9753 18.1 49.9767 18.1 49.9782C18.1 49.9796 18.1 49.981 18.1 49.9824C18.1 49.9838 18.1 49.9852 18.1 49.9866C18.1 49.988 18.1 49.9894 18.1 49.9908C18.1 49.9922 18.1 49.9936 18.1 49.9951C18.1 49.9965 18.1 49.9979 18.1 49.9993C18.1 50.0007 18.1 50.0021 18.1 50.0035C18.1 50.0049 18.1 50.0063 18.1 50.0077C18.1 50.0091 18.1 50.0105 18.1 50.0119C18.1 50.0134 18.1 50.0148 18.1 50.0162C18.1 50.0176 18.1 50.019 18.1 50.0204C18.1 50.0218 18.1 50.0232 18.1 50.0246C18.1 50.026 18.1 50.0274 18.1 50.0288C18.1 50.0302 18.1 50.0316 18.1 50.0331C18.1 50.0345 18.1 50.0359 18.1 50.0373C18.1 50.0387 18.1 50.0401 18.1 50.0415C18.1 50.0429 18.1 50.0443 18.1 50.0457C18.1 50.0471 18.1 50.0485 18.1 50.0499C18.1 50.0513 18.1 50.0527 18.1 50.0541C18.1 50.0556 18.1 50.057 18.1 50.0584C18.1 50.0598 18.1 50.0612 18.1 50.0626C18.1 50.064 18.1 50.0654 18.1 50.0668C18.1 50.0682 18.1 50.0696 18.1 50.071C18.1 50.0724 18.1 50.0738 18.1 50.0752C18.1 50.0766 18.1 50.078 18.1 50.0795C18.1 50.0809 18.1 50.0823 18.1 50.0837C18.1 50.0851 18.1 50.0865 18.1 50.0879C18.1 50.0893 18.1 50.0907 18.1 50.0921C18.1 50.0935 18.1 50.0949 18.1 50.0963C18.1 50.0977 18.1 50.0991 18.1 50.1005C18.1 50.1019 18.1 50.1033 18.1 50.1047C18.1 50.1061 18.1 50.1076 18.1 50.109C18.1 50.1104 18.1 50.1118 18.1 50.1132C18.1 50.1146 18.1 50.116 18.1 50.1174C18.1 50.1188 18.1 50.1202 18.1 50.1216C18.1 50.123 18.1 50.1244 18.1 50.1258C18.1 50.1272 18.1 50.1286 18.1 50.13C18.1 50.1314 18.1 50.1328 18.1 50.1342C18.1 50.1356 18.1 50.137 18.1 50.1385C18.1 50.1399 18.1 50.1413 18.1 50.1427C18.1 50.1441 18.1 50.1455 18.1 50.1469C18.1 50.1483 18.1 50.1497 18.1 50.1511C18.1 50.1525 18.1 50.1539 18.1 50.1553C18.1 50.1567 18.1 50.1581 18.1 50.1595C18.1 50.1609 18.1 50.1623 18.1 50.1637C18.1 50.1651 18.1 50.1665 18.1 50.1679C18.1 50.1693 18.1 50.1707 18.1 50.1721C18.1 50.1735 18.1 50.1749 18.1 50.1763C18.1 50.1778 18.1 50.1792 18.1 50.1806C18.1 50.182 18.1 50.1834 18.1 50.1848C18.1 50.1862 18.1 50.1876 18.1 50.189C18.1 50.1904 18.1 50.1918 18.1 50.1932C18.1 50.1946 18.1 50.196 18.1 50.1974C18.1 50.1988 18.1 50.2002 18.1 50.2016C18.1 50.203 18.1 50.2044 18.1 50.2058C18.1 50.2072 18.1 50.2086 18.1 50.21C18.1 50.2114 18.1 50.2128 18.1 50.2142C18.1 50.2156 18.1 50.217 18.1 50.2184C18.1 50.2198 18.1 50.2212 18.1 50.2226C18.1 50.224 18.1 50.2254 18.1 50.2268C18.1 50.2282 18.1 50.2296 18.1 50.2311C18.1 50.2325 18.1 50.2339 18.1 50.2353C18.1 50.2367 18.1 50.2381 18.1 50.2395C18.1 50.2409 18.1 50.2423 18.1 50.2437C18.1 50.2451 18.1 50.2465 18.1 50.2479C18.1 50.2493 18.1 50.2507 18.1 50.2521C18.1 50.2535 18.1 50.2549 18.1 50.2563C18.1 50.2577 18.1 50.2591 18.1 50.2605C18.1 50.2619 18.1 50.2633 18.1 50.2647C18.1 50.2661 18.1 50.2675 18.1 50.2689C18.1 50.2703 18.1 50.2717 18.1 50.2731C18.1 50.2745 18.1 50.2759 18.1 50.2773C18.1 50.2787 18.1 50.2801 18.1 50.2815C18.1 50.2829 18.1 50.2843 18.1 50.2857C18.1 50.2871 18.1 50.2885 18.1 50.2899C18.1 50.2913 18.1 50.2927 18.1 50.2941C18.1 50.2955 18.1 50.2969 18.1 50.2983C18.1 50.2997 18.1 50.3011 18.1 50.3025C18.1 50.3039 18.1 50.3053 18.1 50.3067C18.1 50.3081 18.1 50.3095 18.1 50.3109C18.1 50.3123 18.1 50.3137 18.1 50.3151C18.1 50.3165 18.1 50.3179 18.1 50.3193C18.1 50.3207 18.1 50.3221 18.1 50.3235C18.1 50.3249 18.1 50.3263 18.1 50.3277C18.1 50.3291 18.1 50.3305 18.1 50.3319C18.1 50.3333 18.1 50.3347 18.1 50.3362C18.1 50.3376 18.1 50.339 18.1 50.3404C18.1 50.3418 18.1 50.3432 18.1 50.3446C18.1 50.346 18.1 50.3474 18.1 50.3488C18.1 50.3502 18.1 50.3516 18.1 50.353C18.1 50.3544 18.1 50.3558 18.1 50.3572C18.1 50.3586 18.1 50.36 18.1 50.3614C18.1 50.3628 18.1 50.3642 18.1 50.3656C18.1 50.367 18.1 50.3684 18.1 50.3698C18.1 50.3712 18.1 50.3726 18.1 50.374C18.1 50.3754 18.1 50.3768 18.1 50.3782C18.1 50.3796 18.1 50.381 18.1 50.3824C18.1 50.3838 18.1 50.3852 18.1 50.3866C18.1 50.388 18.1 50.3894 18.1 50.3908C18.1 50.3922 18.1 50.3936 18.1 50.395C18.1 50.3964 18.1 50.3978 18.1 50.3992C18.1 50.4006 18.1 50.402 18.1 50.4034C18.1 50.4048 18.1 50.4062 18.1 50.4076C18.1 50.409 18.1 50.4104 18.1 50.4118C18.1 50.4132 18.1 50.4146 18.1 50.416C18.1 50.4174 18.1 50.4188 18.1 50.4202C18.1 50.4216 18.1 50.423 18.1 50.4244C18.1 50.4258 18.1 50.4272 18.1 50.4286C18.1 50.43 18.1 50.4314 18.1 50.4328C18.1 50.4342 18.1 50.4356 18.1 50.437C18.1 50.4384 18.1 50.4398 18.1 50.4412C18.1 50.4426 18.1 50.444 18.1 50.4454C18.1 50.4468 18.1 50.4482 18.1 50.4496C18.1 50.451 18.1 50.4524 18.1 50.4538C18.1 50.4552 18.1 50.4566 18.1 50.458C18.1 50.4594 18.1 50.4608 18.1 50.4622C18.1 50.4636 18.1 50.465 18.1 50.4664C18.1 50.4678 18.1 50.4692 18.1 50.4706C18.1 50.472 18.1 50.4734 18.1 50.4748C18.1 50.4762 18.1 50.4776 18.1 50.479C18.1 50.4804 18.1 50.4818 18.1 50.4832C18.1 50.4846 18.1 50.486 18.1 50.4874C18.1 50.4888 18.1 50.4902 18.1 50.4916C18.1 50.493 18.1 50.4944 18.1 50.4958C18.1 50.4972 18.1 50.4986 18.1 50.5C18.1 50.5014 18.1 50.5028 18.1 50.5042C18.1 50.5056 18.1 50.507 18.1 50.5084C18.1 50.5098 18.1 50.5112 18.1 50.5126C18.1 50.514 18.1 50.5154 18.1 50.5168C18.1 50.5182 18.1 50.5196 18.1 50.521C18.1 50.5224 18.1 50.5238 18.1 50.5252C18.1 50.5266 18.1 50.528 18.1 50.5294C18.1 50.5308 18.1 50.5322 18.1 50.5336C18.1 50.535 18.1 50.5364 18.1 50.5378C18.1 50.5392 18.1 50.5406 18.1 50.5419C18.1 50.5433 18.1 50.5447 18.1 50.5461C18.1 50.5475 18.1 50.5489 18.1 50.5503C18.1 50.5517 18.1 50.5531 18.1 50.5545C18.1 50.5559 18.1 50.5573 18.1 50.5587C18.1 50.5601 18.1 50.5615 18.1 50.5629C18.1 50.5643 18.1 50.5657 18.1 50.5671C18.1 50.5685 18.1 50.5699 18.1 50.5713C18.1 50.5727 18.1 50.5741 18.1 50.5755C18.1 50.5769 18.1 50.5783 18.1 50.5797C18.1 50.5811 18.1 50.5825 18.1 50.5839C18.1 50.5853 18.1 50.5867 18.1 50.5881C18.1 50.5895 18.1 50.5909 18.1 50.5923C18.1 50.5937 18.1 50.5951 18.1 50.5965C18.1 50.5979 18.1 50.5993 18.1 50.6007C18.1 50.6021 18.1 50.6035 18.1 50.6049C18.1 50.6063 18.1 50.6077 18.1 50.6091C18.1 50.6105 18.1 50.6119 18.1 50.6133C18.1 50.6147 18.1 50.6161 18.1 50.6175C18.1 50.6189 18.1 50.6203 18.1 50.6217C18.1 50.6231 18.1 50.6245 18.1 50.6259C18.1 50.6273 18.1 50.6287 18.1 50.6301C18.1 50.6315 18.1 50.6329 18.1 50.6343C18.1 50.6357 18.1 50.6371 18.1 50.6385C18.1 50.6399 18.1 50.6413 18.1 50.6427C18.1 50.6441 18.1 50.6455 18.1 50.6469C18.1 50.6484 18.1 50.6498 18.1 50.6512C18.1 50.6526 18.1 50.654 18.1 50.6554C18.1 50.6568 18.1 50.6582 18.1 50.6596C18.1 50.661 18.1 50.6624 18.1 50.6638C18.1 50.6652 18.1 50.6666 18.1 50.668C18.1 50.6694 18.1 50.6708 18.1 50.6722C18.1 50.6736 18.1 50.675 18.1 50.6764C18.1 50.6778 18.1 50.6792 18.1 50.6806C18.1 50.682 18.1 50.6834 18.1 50.6848C18.1 50.6862 18.1 50.6876 18.1 50.689C18.1 50.6904 18.1 50.6918 18.1 50.6932C18.1 50.6946 18.1 50.696 18.1 50.6974C18.1 50.6988 18.1 50.7002 18.1 50.7016C18.1 50.703 18.1 50.7044 18.1 50.7058C18.1 50.7072 18.1 50.7086 18.1 50.71C18.1 50.7114 18.1 50.7128 18.1 50.7142C18.1 50.7156 18.1 50.717 18.1 50.7184C18.1 50.7198 18.1 50.7212 18.1 50.7226C18.1 50.724 18.1 50.7254 18.1 50.7268C18.1 50.7282 18.1 50.7296 18.1 50.731C18.1 50.7324 18.1 50.7338 18.1 50.7352C18.1 50.7366 18.1 50.738 18.1 50.7394C18.1 50.7408 18.1 50.7422 18.1 50.7436C18.1 50.745 18.1 50.7464 18.1 50.7478C18.1 50.7492 18.1 50.7506 18.1 50.752C18.1 50.7534 18.1 50.7548 18.1 50.7562C18.1 50.7576 18.1 50.759 18.1 50.7604C18.1 50.7618 18.1 50.7632 18.1 50.7646C18.1 50.766 18.1 50.7674 18.1 50.7688C18.1 50.7702 18.1 50.7716 18.1 50.7731C18.1 50.7745 18.1 50.7759 18.1 50.7773C18.1 50.7787 18.1 50.7801 18.1 50.7815C18.1 50.7829 18.1 50.7843 18.1 50.7857C18.1 50.7871 18.1 50.7885 18.1 50.7899C18.1 50.7913 18.1 50.7927 18.1 50.7941C18.1 50.7955 18.1 50.7969 18.1 50.7983C18.1 50.7997 18.1 50.8011 18.1 50.8025C18.1 50.8039 18.1 50.8053 18.1 50.8067C18.1 50.8081 18.1 50.8095 18.1 50.8109C18.1 50.8123 18.1 50.8137 18.1 50.8151C18.1 50.8165 18.1 50.8179 18.1 50.8193C18.1 50.8207 18.1 50.8221 18.1 50.8235C18.1 50.8249 18.1 50.8263 18.1 50.8277C18.1 50.8292 18.1 50.8306 18.1 50.832C18.1 50.8334 18.1 50.8348 18.1 50.8362C18.1 50.8376 18.1 50.839 18.1 50.8404C18.1 50.8418 18.1 50.8432 18.1 50.8446C18.1 50.846 18.1 50.8474 18.1 50.8488C18.1 50.8502 18.1 50.8516 18.1 50.853C18.1 50.8544 18.1 50.8558 18.1 50.8572C18.1 50.8586 18.1 50.86 18.1 50.8614C18.1 50.8628 18.1 50.8642 18.1 50.8656C18.1 50.867 18.1 50.8684 18.1 50.8699C18.1 50.8713 18.1 50.8727 18.1 50.8741C18.1 50.8755 18.1 50.8769 18.1 50.8783C18.1 50.8797 18.1 50.8811 18.1 50.8825C18.1 50.8839 18.1 50.8853 18.1 50.8867C18.1 50.8881 18.1 50.8895 18.1 50.8909C18.1 50.8923 18.1 50.8937 18.1 50.8951C18.1 50.8965 18.1 50.8979 18.1 50.8993C18.1 50.9007 18.1 50.9022 18.1 50.9036C18.1 50.905 18.1 50.9064 18.1 50.9078C18.1 50.9092 18.1 50.9106 18.1 50.912C18.1 50.9134 18.1 50.9148 18.1 50.9162C18.1 50.9176 18.1 50.919 18.1 50.9204C18.1 50.9218 18.1 50.9232 18.1 50.9246C18.1 50.926 18.1 50.9274 18.1 50.9288C18.1 50.9303 18.1 50.9317 18.1 50.9331C18.1 50.9345 18.1 50.9359 18.1 50.9373C18.1 50.9387 18.1 50.9401 18.1 50.9415C18.1 50.9429 18.1 50.9443 18.1 50.9457C18.1 50.9471 18.1 50.9485 18.1 50.9499C18.1 50.9513 18.1 50.9527 18.1 50.9542C18.1 50.9556 18.1 50.957 18.1 50.9584C18.1 50.9598 18.1 50.9612 18.1 50.9626C18.1 50.964 18.1 50.9654 18.1 50.9668C18.1 50.9682 18.1 50.9696 18.1 50.971C18.1 50.9724 18.1 50.9738 18.1 50.9752C18.1 50.9767 18.1 50.9781 18.1 50.9795C18.1 50.9809 18.1 50.9823 18.1 50.9837C18.1 50.9851 18.1 50.9865 18.1 50.9879C18.1 50.9893 18.1 50.9907 18.1 50.9921C18.1 50.9935 18.1 50.9949 18.1 50.9964C18.1 50.9978 18.1 50.9992 18.1 51.0006C18.1 51.002 18.1 51.0034 18.1 51.0048C18.1 51.0062 18.1 51.0076 18.1 51.009C18.1 51.0104 18.1 51.0118 18.1 51.0132C18.1 51.0147 18.1 51.0161 18.1 51.0175C18.1 51.0189 18.1 51.0203 18.1 51.0217C18.1 51.0231 18.1 51.0245 18.1 51.0259C18.1 51.0273 18.1 51.0287 18.1 51.0301C18.1 51.0315 18.1 51.033 18.1 51.0344C18.1 51.0358 18.1 51.0372 18.1 51.0386C18.1 51.04 18.1 51.0414 18.1 51.0428C18.1 51.0442 18.1 51.0456 18.1 51.047C18.1 51.0485 18.1 51.0499 18.1 51.0513C18.1 51.0527 18.1 51.0541 18.1 51.0555C18.1 51.0569 18.1 51.0583 18.1 51.0597C18.1 51.0611 18.1 51.0625 18.1 51.064C18.1 51.0654 18.1 51.0668 18.1 51.0682C18.1 51.0696 18.1 51.071 18.1 51.0724C18.1 51.0738 18.1 51.0752 18.1 51.0766C18.1 51.0781 18.1 51.0795 18.1 51.0809C18.1 51.0823 18.1 51.0837 18.1 51.0851C18.1 51.0865 18.1 51.0879 18.1 51.0893C18.1 51.0907 18.1 51.0922 18.1 51.0936C18.1 51.095 18.1 51.0964 18.1 51.0978C18.1 51.0992 18.1 51.1006 18.1 51.102C18.1 51.1034 18.1 51.1049 18.1 51.1063C18.1 51.1077 18.1 51.1091 18.1 51.1105C18.1 51.1119 18.1 51.1133 18.1 51.1147C18.1 51.1161 18.1 51.1176 18.1 51.119C18.1 51.1204 18.1 51.1218 18.1 51.1232C18.1 51.1246 18.1 51.126 18.1 51.1274C18.1 51.1289 18.1 51.1303 18.1 51.1317C18.1 51.1331 18.1 51.1345 18.1 51.1359C18.1 51.1373 18.1 51.1387 18.1 51.1401C18.1 51.1416 18.1 51.143 18.1 51.1444C18.1 51.1458 18.1 51.1472 18.1 51.1486C18.1 51.15 18.1 51.1514 18.1 51.1529C18.1 51.1543 18.1 51.1557 18.1 51.1571C18.1 51.1585 18.1 51.1599 18.1 51.1613C18.1 51.1628 18.1 51.1642 18.1 51.1656C18.1 51.167 18.1 51.1684 18.1 51.1698C18.1 51.1712 18.1 51.1726 18.1 51.1741C18.1 51.1755 18.1 51.1769 18.1 51.1783C18.1 51.1797 18.1 51.1811 18.1 51.1825C18.1 51.184 18.1 51.1854 18.1 51.1868C18.1 51.1882 18.1 51.1896 18.1 51.191C18.1 51.1924 18.1 51.1939 18.1 51.1953C18.1 51.1967 18.1 51.1981 18.1 51.1995C18.1 51.2009 18.1 51.2024 18.1 51.2038C18.1 51.2052 18.1 51.2066 18.1 51.208C18.1 51.2094 18.1 51.2108 18.1 51.2123C18.1 51.2137 18.1 51.2151 18.1 51.2165C18.1 51.2179 18.1 51.2193 18.1 51.2208C18.1 51.2222 18.1 51.2236 18.1 51.225H20.1ZM20.0806 48.8539C20.0331 48.6164 19.9189 48.3837 19.7436 48.1958C19.5672 48.0069 19.2629 47.8 18.85 47.8V49.8C18.5621 49.8 18.3703 49.6556 18.2814 49.5604C18.1936 49.4663 18.1419 49.3586 18.1194 49.2461L20.0806 48.8539ZM18.8794 47.8004C18.0144 47.775 15.1276 47.75 14.275 47.75V49.75C15.1224 49.75 17.9856 49.775 18.8206 49.7996L18.8794 47.8004ZM14.275 47.75H14.025V49.75H14.275V47.75ZM15.025 48.75V48.325H13.025V48.75H15.025ZM15.025 48.325C15.025 48.5427 14.8695 48.5713 15.1063 48.3937C15.3275 48.2278 15.6618 48.0501 16.1657 47.7849L15.2343 46.0151C14.7882 46.2499 14.285 46.5097 13.9063 46.7937C13.543 47.0662 13.025 47.5573 13.025 48.325H15.025ZM16.1531 47.7915C16.9137 47.4049 17.9433 46.8644 18.7708 45.9961C19.6321 45.0924 20.25 43.8624 20.25 42.175H18.25C18.25 43.3126 17.8554 44.0576 17.323 44.6164C16.7567 45.2106 16.0113 45.6201 15.247 46.0085L16.1531 47.7915ZM20.25 42.175C20.25 41.0598 20.0684 40.1145 19.675 39.3358C19.2731 38.5404 18.6802 37.9788 17.9672 37.5988C16.6214 36.8815 14.8469 36.825 13.175 36.825V38.825C14.9281 38.825 16.1911 38.9185 17.0265 39.3637C17.4042 39.565 17.6878 39.8377 17.8899 40.2377C18.1003 40.6542 18.25 41.2652 18.25 42.175H20.25ZM13.175 36.825C11.6487 36.825 10.2994 37.1258 9.12212 37.4013L9.57788 39.3487C10.7506 39.0742 11.9013 38.825 13.175 38.825V36.825ZM8.35857 38.5056L8.90857 42.6806L10.8914 42.4194L10.3414 38.2444L8.35857 38.5056ZM10.3594 43.4382C11.0869 43.0619 12.1676 42.525 13.4 42.525V40.525C11.6324 40.525 10.1631 41.2881 9.44058 41.6618L10.3594 43.4382ZM13.4 42.525C13.5573 42.525 13.6928 42.537 13.8027 42.5562C13.915 42.5758 13.9843 42.6 14.0181 42.6155C14.0553 42.6325 14.0198 42.6249 13.9678 42.5619C13.9044 42.4849 13.85 42.3639 13.85 42.225H15.85C15.85 41.4386 15.2793 40.9933 14.8507 40.797C14.4137 40.5969 13.8935 40.525 13.4 40.525V42.525ZM13.85 42.225C13.85 42.0649 13.9164 41.9562 13.9454 41.9193C13.9634 41.8965 13.9518 41.9193 13.8571 41.981C13.6567 42.1116 13.352 42.2517 12.8842 42.4655L13.7158 44.2845C14.123 44.0983 14.5933 43.8884 14.9491 43.6565C15.2604 43.4537 15.85 43.0051 15.85 42.225H13.85ZM12.8685 42.4729C12.0252 42.8762 10.7994 43.452 9.80386 44.4258C8.76741 45.4396 8 46.8604 8 48.875H10C10 47.4396 10.5201 46.5229 11.2024 45.8555C11.9256 45.148 12.8498 44.6988 13.7315 44.2771L12.8685 42.4729ZM27.1467 53.15V54.15H27.1715L27.1963 54.1488L27.1467 53.15ZM25.8967 37.825V36.825H25.8719L25.8471 36.8262L25.8967 37.825ZM19.2467 45.5C19.2467 48.4774 19.7829 50.717 21.1811 52.1887C22.5944 53.6765 24.6667 54.15 27.1467 54.15V52.15C24.8517 52.15 23.474 51.6985 22.6311 50.8113C21.7729 49.908 21.2467 48.3226 21.2467 45.5H19.2467ZM27.1963 54.1488C29.2123 54.0487 30.896 53.2515 32.0464 51.7025C33.169 50.1908 33.6967 48.0804 33.6967 45.5H31.6967C31.6967 47.8446 31.2119 49.4717 30.4407 50.51C29.6974 51.511 28.606 52.0763 27.0971 52.1512L27.1963 54.1488ZM33.6967 45.5C33.6967 42.5406 33.1812 40.2991 31.8123 38.8181C30.422 37.3139 28.3708 36.825 25.8967 36.825V38.825C28.1726 38.825 29.5214 39.2861 30.3436 40.1756C31.1872 41.0884 31.6967 42.6844 31.6967 45.5H33.6967ZM25.8471 36.8262C23.8277 36.9265 22.1249 37.7377 20.9524 39.2872C19.8038 40.8051 19.2467 42.9215 19.2467 45.5H21.2467C21.2467 43.1785 21.7521 41.5449 22.5472 40.494C23.3185 39.4748 24.4406 38.8985 25.9463 38.8238L25.8471 36.8262ZM26.3967 45.5C26.3967 43.9889 26.4871 43.3394 26.5828 43.0777C26.6172 42.9834 26.6069 43.0709 26.4787 43.1496C26.3676 43.2178 26.29 43.2 26.3967 43.2V41.2C26.1658 41.2 25.7945 41.2229 25.4326 41.445C25.0537 41.6775 24.8355 42.0322 24.7043 42.3911C24.4687 43.0356 24.3967 44.0361 24.3967 45.5H26.3967ZM26.3967 43.2C26.4979 43.2 26.4502 43.2156 26.3678 43.1693C26.2673 43.1129 26.2594 43.0507 26.2951 43.1329C26.3998 43.3737 26.5217 44.0046 26.5217 45.5H28.5217C28.5217 44.0204 28.4186 43.0013 28.1295 42.3359C27.9683 41.9649 27.7213 41.6355 27.3467 41.4252C26.99 41.2251 26.6329 41.2 26.3967 41.2V43.2ZM26.5217 45.5C26.5217 47.0049 26.4185 47.6469 26.3191 47.8998C26.2843 47.9885 26.2942 47.9114 26.4113 47.8421C26.5108 47.7832 26.576 47.8 26.4717 47.8V49.8C26.7049 49.8 27.07 49.7762 27.4297 49.5634C27.807 49.3402 28.0372 48.9959 28.1805 48.6315C28.4373 47.9781 28.5217 46.9701 28.5217 45.5H26.5217ZM26.4717 47.8C26.3685 47.8 26.4276 47.7836 26.5214 47.8381C26.633 47.903 26.6424 47.975 26.6073 47.8887C26.5061 47.64 26.3967 47.0018 26.3967 45.5H24.3967C24.3967 46.9732 24.4872 47.985 24.7548 48.6425C24.9041 49.0093 25.14 49.3486 25.5165 49.5673C25.8751 49.7757 26.2374 49.8 26.4717 49.8V47.8Z" fill="white" mask="url(#path-37-outside-1_1675_2048)"/>
<defs>
<radialGradient id="paint0_radial_1675_2048" cx="0" cy="0" r="1" gradientUnits="userSpaceOnUse" gradientTransform="translate(20.5 20.6066) rotate(90) scale(20.6066 20.5)">
<stop offset="0.53125" stop-color="#F9F9F9"/>
<stop offset="1" stop-color="white" stop-opacity="0"/>
</radialGradient>
</defs>
</svg>
