<svg width="1076" height="741" viewBox="0 0 1076 741" fill="none" xmlns="http://www.w3.org/2000/svg">
<g filter="url(#filter0_d_1675_1839)">
<path fill-rule="evenodd" clip-rule="evenodd" d="M169.5 221C213.407 221 249 185.407 249 141.5C249 138.766 248.862 136.063 248.592 133.4C246.721 114.903 258.924 91 277.516 91H857C867.493 91 876 99.5066 876 110V497C876 507.493 867.493 516 857 516H136C125.507 516 117 507.493 117 497V249.869C117 230.938 142.011 218.492 160.832 220.533C163.679 220.842 166.571 221 169.5 221Z" fill="url(#paint0_linear_1675_1839)"/>
</g>
<defs>
<filter id="filter0_d_1675_1839" x="0.961624" y="0.0725937" width="1074.73" height="740.733" filterUnits="userSpaceOnUse" color-interpolation-filters="sRGB">
<feFlood flood-opacity="0" result="BackgroundImageFix"/>
<feColorMatrix in="SourceAlpha" type="matrix" values="0 0 0 0 0 0 0 0 0 0 0 0 0 0 0 0 0 0 127 0" result="hardAlpha"/>
<feOffset dx="41.8283" dy="66.9393"/>
<feGaussianBlur stdDeviation="78.9333"/>
<feColorMatrix type="matrix" values="0 0 0 0 0.0180392 0 0 0 0 0.0188235 0 0 0 0 0.0321569 0 0 0 0.485 0"/>
<feBlend mode="normal" in2="BackgroundImageFix" result="effect1_dropShadow_1675_1839"/>
<feBlend mode="normal" in="SourceGraphic" in2="effect1_dropShadow_1675_1839" result="shape"/>
</filter>
<linearGradient id="paint0_linear_1675_1839" x1="341.028" y1="12.6141" x2="497.251" y2="459.103" gradientUnits="userSpaceOnUse">
<stop stop-color="#4DCDBB"/>
<stop offset="1" stop-color="#121541"/>
</linearGradient>
</defs>
</svg>
